<mxfile host="app.diagrams.net" agent="Mozilla/5.0 (Windows NT 10.0; Win64; x64) AppleWebKit/537.36 (KHTML, like Gecko) Chrome/116.0.0.0 Safari/537.36" version="24.7.6">
  <diagram name="第 1 页" id="yuaTDYpVbEBFfRg4A3FN">
    <mxGraphModel dx="1245" dy="1459" grid="0" gridSize="10" guides="1" tooltips="1" connect="1" arrows="1" fold="1" page="0" pageScale="1" pageWidth="2339" pageHeight="3300" math="0" shadow="0">
      <root>
        <mxCell id="0" />
        <mxCell id="1" parent="0" />
        <mxCell id="CqxgGtcZtNKs-9hgngda-1" value="回溯题" style="text;html=1;align=center;verticalAlign=middle;resizable=0;points=[];autosize=1;strokeColor=none;fillColor=none;" vertex="1" parent="1">
          <mxGeometry x="131" y="271" width="60" height="30" as="geometry" />
        </mxCell>
        <mxCell id="CqxgGtcZtNKs-9hgngda-2" value="组合问题" style="text;html=1;align=center;verticalAlign=middle;resizable=0;points=[];autosize=1;strokeColor=none;fillColor=none;" vertex="1" parent="1">
          <mxGeometry x="206" y="223" width="70" height="30" as="geometry" />
        </mxCell>
        <mxCell id="CqxgGtcZtNKs-9hgngda-3" value="子集问题" style="text;html=1;align=center;verticalAlign=middle;resizable=0;points=[];autosize=1;strokeColor=none;fillColor=none;" vertex="1" parent="1">
          <mxGeometry x="206" y="323" width="70" height="30" as="geometry" />
        </mxCell>
        <mxCell id="CqxgGtcZtNKs-9hgngda-4" value="组合是无序的&lt;div&gt;[1,2]和[2,1]是一个&lt;br&gt;&lt;/div&gt;" style="text;html=1;align=center;verticalAlign=middle;resizable=0;points=[];autosize=1;strokeColor=none;fillColor=none;" vertex="1" parent="1">
          <mxGeometry x="342" y="204" width="113" height="41" as="geometry" />
        </mxCell>
        <mxCell id="CqxgGtcZtNKs-9hgngda-6" value="&lt;pre class=&quot;language-cpp&quot; style=&quot;background: transparent; font-family: Consolas, Monaco, &amp;quot;Andale Mono&amp;quot;, &amp;quot;Ubuntu Mono&amp;quot;, monospace; font-size: 16px; text-align: left; white-space: pre; word-spacing: 0px; word-break: normal; overflow-wrap: normal; line-height: 1.4; tab-size: 4; hyphens: none; padding: 1.25rem 1.5rem 1.25rem 4.5rem; margin: 0.85rem 0px; overflow: auto; border-radius: 6px; position: relative; z-index: 1; vertical-align: middle; font-style: normal; font-variant-ligatures: normal; font-variant-caps: normal; letter-spacing: normal; orphans: 2; text-indent: 0px; text-transform: none; widows: 2; -webkit-text-stroke-width: 0px; text-decoration-thickness: initial; text-decoration-style: initial; text-decoration-color: initial;&quot;&gt;&lt;code style=&quot;font-family: source-code-pro, Menlo, Monaco, Consolas, &amp;quot;Courier New&amp;quot;, monospace; padding: 0px; margin: 0px; font-size: 0.85em; background-color: transparent; border-radius: 0px;&quot;&gt;&lt;b style=&quot;&quot;&gt;&lt;span class=&quot;token keyword&quot; style=&quot;&quot;&gt;class&lt;/span&gt; &lt;span class=&quot;token class-name&quot; style=&quot;&quot;&gt;Solution&lt;/span&gt; &lt;span class=&quot;token punctuation&quot; style=&quot;&quot;&gt;{&lt;/span&gt;&lt;br&gt;&lt;span class=&quot;token keyword&quot; style=&quot;&quot;&gt;private&lt;/span&gt;&lt;span class=&quot;token operator&quot; style=&quot;&quot;&gt;:&lt;/span&gt;&lt;br&gt;    vector&lt;span class=&quot;token operator&quot; style=&quot;&quot;&gt;&amp;lt;&lt;/span&gt;vector&lt;span class=&quot;token operator&quot; style=&quot;&quot;&gt;&amp;lt;&lt;/span&gt;&lt;span class=&quot;token keyword&quot; style=&quot;&quot;&gt;int&lt;/span&gt;&lt;span class=&quot;token operator&quot; style=&quot;&quot;&gt;&amp;gt;&amp;gt;&lt;/span&gt; result&lt;span class=&quot;token punctuation&quot; style=&quot;&quot;&gt;;&lt;/span&gt; &lt;span class=&quot;token comment&quot; style=&quot;&quot;&gt;// 存放符合条件结果的集合&lt;/span&gt;&lt;br&gt;    vector&lt;span class=&quot;token operator&quot; style=&quot;&quot;&gt;&amp;lt;&lt;/span&gt;&lt;span class=&quot;token keyword&quot; style=&quot;&quot;&gt;int&lt;/span&gt;&lt;span class=&quot;token operator&quot; style=&quot;&quot;&gt;&amp;gt;&lt;/span&gt; path&lt;span class=&quot;token punctuation&quot; style=&quot;&quot;&gt;;&lt;/span&gt; &lt;span class=&quot;token comment&quot; style=&quot;&quot;&gt;// 用来存放符合条件结果&lt;/span&gt;&lt;br&gt;    &lt;span class=&quot;token keyword&quot; style=&quot;&quot;&gt;void&lt;/span&gt; &lt;span class=&quot;token function&quot; style=&quot;&quot;&gt;backtracking&lt;/span&gt;&lt;span class=&quot;token punctuation&quot; style=&quot;&quot;&gt;(&lt;/span&gt;&lt;span class=&quot;token keyword&quot; style=&quot;&quot;&gt;int&lt;/span&gt; n&lt;span class=&quot;token punctuation&quot; style=&quot;&quot;&gt;,&lt;/span&gt; &lt;span class=&quot;token keyword&quot; style=&quot;&quot;&gt;int&lt;/span&gt; k&lt;span class=&quot;token punctuation&quot; style=&quot;&quot;&gt;,&lt;/span&gt; &lt;span class=&quot;token keyword&quot; style=&quot;&quot;&gt;int&lt;/span&gt; startIndex&lt;span class=&quot;token punctuation&quot; style=&quot;&quot;&gt;)&lt;/span&gt; &lt;span class=&quot;token punctuation&quot; style=&quot;&quot;&gt;{&lt;/span&gt;&lt;br&gt;        &lt;span class=&quot;token keyword&quot; style=&quot;&quot;&gt;if&lt;/span&gt; &lt;span class=&quot;token punctuation&quot; style=&quot;&quot;&gt;(&lt;/span&gt;path&lt;span class=&quot;token punctuation&quot; style=&quot;&quot;&gt;.&lt;/span&gt;&lt;span class=&quot;token function&quot; style=&quot;&quot;&gt;size&lt;/span&gt;&lt;span class=&quot;token punctuation&quot; style=&quot;&quot;&gt;(&lt;/span&gt;&lt;span class=&quot;token punctuation&quot; style=&quot;&quot;&gt;)&lt;/span&gt; &lt;span class=&quot;token operator&quot; style=&quot;&quot;&gt;==&lt;/span&gt; k&lt;span class=&quot;token punctuation&quot; style=&quot;&quot;&gt;)&lt;/span&gt; &lt;span class=&quot;token punctuation&quot; style=&quot;&quot;&gt;{&lt;/span&gt;&lt;br&gt;            result&lt;span class=&quot;token punctuation&quot; style=&quot;&quot;&gt;.&lt;/span&gt;&lt;span class=&quot;token function&quot; style=&quot;&quot;&gt;push_back&lt;/span&gt;&lt;span class=&quot;token punctuation&quot; style=&quot;&quot;&gt;(&lt;/span&gt;path&lt;span class=&quot;token punctuation&quot; style=&quot;&quot;&gt;)&lt;/span&gt;&lt;span class=&quot;token punctuation&quot; style=&quot;&quot;&gt;;&lt;/span&gt;&lt;br&gt;            &lt;span class=&quot;token keyword&quot; style=&quot;&quot;&gt;return&lt;/span&gt;&lt;span class=&quot;token punctuation&quot; style=&quot;&quot;&gt;;&lt;/span&gt;&lt;br&gt;        &lt;span class=&quot;token punctuation&quot; style=&quot;&quot;&gt;}&lt;/span&gt;&lt;br&gt;        &lt;span class=&quot;token keyword&quot; style=&quot;&quot;&gt;for&lt;/span&gt; &lt;span class=&quot;token punctuation&quot; style=&quot;&quot;&gt;(&lt;/span&gt;&lt;span class=&quot;token keyword&quot; style=&quot;&quot;&gt;int&lt;/span&gt; i &lt;span class=&quot;token operator&quot; style=&quot;&quot;&gt;=&lt;/span&gt; startIndex&lt;span class=&quot;token punctuation&quot; style=&quot;&quot;&gt;;&lt;/span&gt; i &lt;span class=&quot;token operator&quot; style=&quot;&quot;&gt;&amp;lt;=&lt;/span&gt; n&lt;span class=&quot;token punctuation&quot; style=&quot;&quot;&gt;;&lt;/span&gt; i&lt;span class=&quot;token operator&quot; style=&quot;&quot;&gt;++&lt;/span&gt;&lt;span class=&quot;token punctuation&quot; style=&quot;&quot;&gt;)&lt;/span&gt; &lt;span class=&quot;token punctuation&quot; style=&quot;&quot;&gt;{&lt;/span&gt;&lt;br&gt;            path&lt;span class=&quot;token punctuation&quot; style=&quot;&quot;&gt;.&lt;/span&gt;&lt;span class=&quot;token function&quot; style=&quot;&quot;&gt;push_back&lt;/span&gt;&lt;span class=&quot;token punctuation&quot; style=&quot;&quot;&gt;(&lt;/span&gt;i&lt;span class=&quot;token punctuation&quot; style=&quot;&quot;&gt;)&lt;/span&gt;&lt;span class=&quot;token punctuation&quot; style=&quot;&quot;&gt;;&lt;/span&gt; &lt;span class=&quot;token comment&quot; style=&quot;&quot;&gt;// 处理节点&lt;/span&gt;&lt;br&gt;            &lt;span class=&quot;token function&quot; style=&quot;&quot;&gt;backtracking&lt;/span&gt;&lt;span class=&quot;token punctuation&quot; style=&quot;&quot;&gt;(&lt;/span&gt;n&lt;span class=&quot;token punctuation&quot; style=&quot;&quot;&gt;,&lt;/span&gt; k&lt;span class=&quot;token punctuation&quot; style=&quot;&quot;&gt;,&lt;/span&gt; &lt;font color=&quot;#ff66b3&quot;&gt;i &lt;span class=&quot;token operator&quot; style=&quot;&quot;&gt;+&lt;/span&gt; &lt;span class=&quot;token number&quot; style=&quot;&quot;&gt;1&lt;/span&gt;&lt;/font&gt;&lt;span class=&quot;token punctuation&quot; style=&quot;&quot;&gt;)&lt;/span&gt;&lt;span class=&quot;token punctuation&quot; style=&quot;&quot;&gt;;&lt;/span&gt; &lt;span class=&quot;token comment&quot; style=&quot;&quot;&gt;// 递归&lt;/span&gt;&lt;br&gt;            path&lt;span class=&quot;token punctuation&quot; style=&quot;&quot;&gt;.&lt;/span&gt;&lt;span class=&quot;token function&quot; style=&quot;&quot;&gt;pop_back&lt;/span&gt;&lt;span class=&quot;token punctuation&quot; style=&quot;&quot;&gt;(&lt;/span&gt;&lt;span class=&quot;token punctuation&quot; style=&quot;&quot;&gt;)&lt;/span&gt;&lt;span class=&quot;token punctuation&quot; style=&quot;&quot;&gt;;&lt;/span&gt; &lt;span class=&quot;token comment&quot; style=&quot;&quot;&gt;// 回溯，撤销处理的节点&lt;/span&gt;&lt;br&gt;        &lt;span class=&quot;token punctuation&quot; style=&quot;&quot;&gt;}&lt;/span&gt;&lt;br&gt;    &lt;span class=&quot;token punctuation&quot; style=&quot;&quot;&gt;}&lt;/span&gt;&lt;br&gt;&lt;span class=&quot;token keyword&quot; style=&quot;&quot;&gt;public&lt;/span&gt;&lt;span class=&quot;token operator&quot; style=&quot;&quot;&gt;:&lt;/span&gt;&lt;br&gt;    vector&lt;span class=&quot;token operator&quot; style=&quot;&quot;&gt;&amp;lt;&lt;/span&gt;vector&lt;span class=&quot;token operator&quot; style=&quot;&quot;&gt;&amp;lt;&lt;/span&gt;&lt;span class=&quot;token keyword&quot; style=&quot;&quot;&gt;int&lt;/span&gt;&lt;span class=&quot;token operator&quot; style=&quot;&quot;&gt;&amp;gt;&amp;gt;&lt;/span&gt; &lt;span class=&quot;token function&quot; style=&quot;&quot;&gt;combine&lt;/span&gt;&lt;span class=&quot;token punctuation&quot; style=&quot;&quot;&gt;(&lt;/span&gt;&lt;span class=&quot;token keyword&quot; style=&quot;&quot;&gt;int&lt;/span&gt; n&lt;span class=&quot;token punctuation&quot; style=&quot;&quot;&gt;,&lt;/span&gt; &lt;span class=&quot;token keyword&quot; style=&quot;&quot;&gt;int&lt;/span&gt; k&lt;span class=&quot;token punctuation&quot; style=&quot;&quot;&gt;)&lt;/span&gt; &lt;span class=&quot;token punctuation&quot; style=&quot;&quot;&gt;{&lt;/span&gt;&lt;br&gt;        result&lt;span class=&quot;token punctuation&quot; style=&quot;&quot;&gt;.&lt;/span&gt;&lt;span class=&quot;token function&quot; style=&quot;&quot;&gt;clear&lt;/span&gt;&lt;span class=&quot;token punctuation&quot; style=&quot;&quot;&gt;(&lt;/span&gt;&lt;span class=&quot;token punctuation&quot; style=&quot;&quot;&gt;)&lt;/span&gt;&lt;span class=&quot;token punctuation&quot; style=&quot;&quot;&gt;;&lt;/span&gt; &lt;span class=&quot;token comment&quot; style=&quot;&quot;&gt;// 可以不写&lt;/span&gt;&lt;br&gt;        path&lt;span class=&quot;token punctuation&quot; style=&quot;&quot;&gt;.&lt;/span&gt;&lt;span class=&quot;token function&quot; style=&quot;&quot;&gt;clear&lt;/span&gt;&lt;span class=&quot;token punctuation&quot; style=&quot;&quot;&gt;(&lt;/span&gt;&lt;span class=&quot;token punctuation&quot; style=&quot;&quot;&gt;)&lt;/span&gt;&lt;span class=&quot;token punctuation&quot; style=&quot;&quot;&gt;;&lt;/span&gt;   &lt;span class=&quot;token comment&quot; style=&quot;&quot;&gt;// 可以不写&lt;/span&gt;&lt;br&gt;        &lt;span class=&quot;token function&quot; style=&quot;&quot;&gt;backtracking&lt;/span&gt;&lt;span class=&quot;token punctuation&quot; style=&quot;&quot;&gt;(&lt;/span&gt;n&lt;span class=&quot;token punctuation&quot; style=&quot;&quot;&gt;,&lt;/span&gt; k&lt;span class=&quot;token punctuation&quot; style=&quot;&quot;&gt;,&lt;/span&gt; &lt;span class=&quot;token number&quot; style=&quot;&quot;&gt;1&lt;/span&gt;&lt;span class=&quot;token punctuation&quot; style=&quot;&quot;&gt;)&lt;/span&gt;&lt;span class=&quot;token punctuation&quot; style=&quot;&quot;&gt;;&lt;/span&gt;&lt;br&gt;        &lt;span class=&quot;token keyword&quot; style=&quot;&quot;&gt;return&lt;/span&gt; result&lt;span class=&quot;token punctuation&quot; style=&quot;&quot;&gt;;&lt;/span&gt;&lt;br&gt;    &lt;span class=&quot;token punctuation&quot; style=&quot;&quot;&gt;}&lt;/span&gt;&lt;br&gt;&lt;span class=&quot;token punctuation&quot; style=&quot;&quot;&gt;}&lt;/span&gt;&lt;span class=&quot;token punctuation&quot; style=&quot;&quot;&gt;;&lt;/span&gt;&lt;/b&gt;&lt;/code&gt;&lt;/pre&gt;" style="text;whiteSpace=wrap;html=1;" vertex="1" parent="1">
          <mxGeometry x="628" y="-119" width="560" height="610" as="geometry" />
        </mxCell>
        <mxCell id="CqxgGtcZtNKs-9hgngda-9" value="全排列问题" style="text;html=1;align=center;verticalAlign=middle;resizable=0;points=[];autosize=1;strokeColor=none;fillColor=none;" vertex="1" parent="1">
          <mxGeometry x="202" y="279" width="78" height="26" as="geometry" />
        </mxCell>
        <mxCell id="CqxgGtcZtNKs-9hgngda-11" value="排列是有序的&lt;div&gt;[1,2]和[2,1]是两个&lt;/div&gt;" style="text;html=1;align=center;verticalAlign=middle;resizable=0;points=[];autosize=1;strokeColor=none;fillColor=none;" vertex="1" parent="1">
          <mxGeometry x="327" y="282" width="113" height="41" as="geometry" />
        </mxCell>
        <mxCell id="CqxgGtcZtNKs-9hgngda-12" value="&lt;p style=&quot;line-height: 1.7; color: rgb(44, 62, 80); font-family: -apple-system, BlinkMacSystemFont, &amp;quot;Segoe UI&amp;quot;, Roboto, Oxygen, Ubuntu, Cantarell, &amp;quot;Fira Sans&amp;quot;, &amp;quot;Droid Sans&amp;quot;, &amp;quot;Helvetica Neue&amp;quot;, sans-serif; font-size: 16px; font-style: normal; font-variant-ligatures: normal; font-variant-caps: normal; font-weight: 400; letter-spacing: normal; orphans: 2; text-align: start; text-indent: 0px; text-transform: none; widows: 2; word-spacing: 0px; -webkit-text-stroke-width: 0px; white-space: normal; background-color: rgb(255, 255, 255); text-decoration-thickness: initial; text-decoration-style: initial; text-decoration-color: initial;&quot;&gt;给定两个整数 n 和 k，返回 1 ... n 中所有可能的 k 个数的组合。&lt;/p&gt;&lt;p style=&quot;line-height: 1.7; color: rgb(44, 62, 80); font-family: -apple-system, BlinkMacSystemFont, &amp;quot;Segoe UI&amp;quot;, Roboto, Oxygen, Ubuntu, Cantarell, &amp;quot;Fira Sans&amp;quot;, &amp;quot;Droid Sans&amp;quot;, &amp;quot;Helvetica Neue&amp;quot;, sans-serif; font-size: 16px; font-style: normal; font-variant-ligatures: normal; font-variant-caps: normal; font-weight: 400; letter-spacing: normal; orphans: 2; text-align: start; text-indent: 0px; text-transform: none; widows: 2; word-spacing: 0px; -webkit-text-stroke-width: 0px; white-space: normal; background-color: rgb(255, 255, 255); text-decoration-thickness: initial; text-decoration-style: initial; text-decoration-color: initial;&quot;&gt;示例: 输入: n = 4, k = 2 输出: [ [2,4], [3,4], [2,3], [1,2], [1,3], [1,4], ]&lt;/p&gt;" style="text;whiteSpace=wrap;html=1;" vertex="1" parent="1">
          <mxGeometry x="663.000727924548" y="-261.003853695518" width="477" height="124" as="geometry" />
        </mxCell>
        <mxCell id="CqxgGtcZtNKs-9hgngda-13" value="&lt;p style=&quot;line-height: 1.7; color: rgb(44, 62, 80); font-family: -apple-system, BlinkMacSystemFont, &amp;quot;Segoe UI&amp;quot;, Roboto, Oxygen, Ubuntu, Cantarell, &amp;quot;Fira Sans&amp;quot;, &amp;quot;Droid Sans&amp;quot;, &amp;quot;Helvetica Neue&amp;quot;, sans-serif; font-size: 16px; font-style: normal; font-variant-ligatures: normal; font-variant-caps: normal; font-weight: 400; letter-spacing: normal; orphans: 2; text-align: start; text-indent: 0px; text-transform: none; widows: 2; word-spacing: 0px; -webkit-text-stroke-width: 0px; white-space: normal; background-color: rgb(255, 255, 255); text-decoration-thickness: initial; text-decoration-style: initial; text-decoration-color: initial;&quot;&gt;给定一组不含重复元素的整数数组&amp;nbsp;nums，返回该数组所有可能的子集（幂集）。&lt;/p&gt;&lt;p style=&quot;line-height: 1.7; color: rgb(44, 62, 80); font-family: -apple-system, BlinkMacSystemFont, &amp;quot;Segoe UI&amp;quot;, Roboto, Oxygen, Ubuntu, Cantarell, &amp;quot;Fira Sans&amp;quot;, &amp;quot;Droid Sans&amp;quot;, &amp;quot;Helvetica Neue&amp;quot;, sans-serif; font-size: 16px; font-style: normal; font-variant-ligatures: normal; font-variant-caps: normal; font-weight: 400; letter-spacing: normal; orphans: 2; text-align: start; text-indent: 0px; text-transform: none; widows: 2; word-spacing: 0px; -webkit-text-stroke-width: 0px; white-space: normal; background-color: rgb(255, 255, 255); text-decoration-thickness: initial; text-decoration-style: initial; text-decoration-color: initial;&quot;&gt;说明：解集不能包含重复的子集。&lt;/p&gt;&lt;p style=&quot;line-height: 1.7; color: rgb(44, 62, 80); font-family: -apple-system, BlinkMacSystemFont, &amp;quot;Segoe UI&amp;quot;, Roboto, Oxygen, Ubuntu, Cantarell, &amp;quot;Fira Sans&amp;quot;, &amp;quot;Droid Sans&amp;quot;, &amp;quot;Helvetica Neue&amp;quot;, sans-serif; font-size: 16px; font-style: normal; font-variant-ligatures: normal; font-variant-caps: normal; font-weight: 400; letter-spacing: normal; orphans: 2; text-align: start; text-indent: 0px; text-transform: none; widows: 2; word-spacing: 0px; -webkit-text-stroke-width: 0px; white-space: normal; background-color: rgb(255, 255, 255); text-decoration-thickness: initial; text-decoration-style: initial; text-decoration-color: initial;&quot;&gt;示例: 输入: nums = [1,2,3] 输出: [ [3], &amp;nbsp; [1], &amp;nbsp; [2], &amp;nbsp; [1,2,3], &amp;nbsp; [1,3], &amp;nbsp; [2,3], &amp;nbsp; [1,2], &amp;nbsp; [] ]&lt;/p&gt;" style="text;whiteSpace=wrap;html=1;" vertex="1" parent="1">
          <mxGeometry x="1254.996638697574" y="-341.0043496864721" width="550" height="222" as="geometry" />
        </mxCell>
        <mxCell id="CqxgGtcZtNKs-9hgngda-14" value="&lt;pre class=&quot;language-cpp&quot; style=&quot;background: transparent; font-family: Consolas, Monaco, &amp;quot;Andale Mono&amp;quot;, &amp;quot;Ubuntu Mono&amp;quot;, monospace; font-size: 16px; text-align: left; white-space: pre; word-spacing: 0px; word-break: normal; overflow-wrap: normal; line-height: 1.4; tab-size: 4; hyphens: none; padding: 1.25rem 1.5rem 1.25rem 4.5rem; margin: 0.85rem 0px; overflow: auto; border-radius: 6px; position: relative; z-index: 1; vertical-align: middle; font-style: normal; font-variant-ligatures: normal; font-variant-caps: normal; letter-spacing: normal; orphans: 2; text-indent: 0px; text-transform: none; widows: 2; -webkit-text-stroke-width: 0px; text-decoration-thickness: initial; text-decoration-style: initial; text-decoration-color: initial;&quot;&gt;&lt;code style=&quot;font-family: source-code-pro, Menlo, Monaco, Consolas, &amp;quot;Courier New&amp;quot;, monospace; padding: 0px; margin: 0px; font-size: 0.85em; background-color: transparent; border-radius: 0px;&quot;&gt;&lt;b&gt;&lt;span class=&quot;token keyword&quot; style=&quot;&quot;&gt;class&lt;/span&gt; &lt;span class=&quot;token class-name&quot; style=&quot;&quot;&gt;Solution&lt;/span&gt; &lt;span class=&quot;token punctuation&quot; style=&quot;&quot;&gt;{&lt;/span&gt;&lt;br&gt;&lt;span class=&quot;token keyword&quot; style=&quot;&quot;&gt;private&lt;/span&gt;&lt;span class=&quot;token operator&quot; style=&quot;&quot;&gt;:&lt;/span&gt;&lt;br&gt;    vector&lt;span class=&quot;token operator&quot; style=&quot;&quot;&gt;&amp;lt;&lt;/span&gt;vector&lt;span class=&quot;token operator&quot; style=&quot;&quot;&gt;&amp;lt;&lt;/span&gt;&lt;span class=&quot;token keyword&quot; style=&quot;&quot;&gt;int&lt;/span&gt;&lt;span class=&quot;token operator&quot; style=&quot;&quot;&gt;&amp;gt;&amp;gt;&lt;/span&gt; result&lt;span class=&quot;token punctuation&quot; style=&quot;&quot;&gt;;&lt;/span&gt;&lt;br&gt;    vector&lt;span class=&quot;token operator&quot; style=&quot;&quot;&gt;&amp;lt;&lt;/span&gt;&lt;span class=&quot;token keyword&quot; style=&quot;&quot;&gt;int&lt;/span&gt;&lt;span class=&quot;token operator&quot; style=&quot;&quot;&gt;&amp;gt;&lt;/span&gt; path&lt;span class=&quot;token punctuation&quot; style=&quot;&quot;&gt;;&lt;/span&gt;&lt;br&gt;    &lt;span class=&quot;token keyword&quot; style=&quot;&quot;&gt;void&lt;/span&gt; &lt;span class=&quot;token function&quot; style=&quot;&quot;&gt;backtracking&lt;/span&gt;&lt;span class=&quot;token punctuation&quot; style=&quot;&quot;&gt;(&lt;/span&gt;vector&lt;span class=&quot;token operator&quot; style=&quot;&quot;&gt;&amp;lt;&lt;/span&gt;&lt;span class=&quot;token keyword&quot; style=&quot;&quot;&gt;int&lt;/span&gt;&lt;span class=&quot;token operator&quot; style=&quot;&quot;&gt;&amp;gt;&lt;/span&gt;&lt;span class=&quot;token operator&quot; style=&quot;&quot;&gt;&amp;amp;&lt;/span&gt; nums&lt;span class=&quot;token punctuation&quot; style=&quot;&quot;&gt;,&lt;/span&gt; &lt;span class=&quot;token keyword&quot; style=&quot;&quot;&gt;int&lt;/span&gt; startIndex&lt;span class=&quot;token punctuation&quot; style=&quot;&quot;&gt;)&lt;/span&gt; &lt;span class=&quot;token punctuation&quot; style=&quot;&quot;&gt;{&lt;/span&gt;&lt;br&gt;        result&lt;span class=&quot;token punctuation&quot; style=&quot;&quot;&gt;.&lt;/span&gt;&lt;span class=&quot;token function&quot; style=&quot;&quot;&gt;push_back&lt;/span&gt;&lt;span class=&quot;token punctuation&quot; style=&quot;&quot;&gt;(&lt;/span&gt;path&lt;span class=&quot;token punctuation&quot; style=&quot;&quot;&gt;)&lt;/span&gt;&lt;span class=&quot;token punctuation&quot; style=&quot;&quot;&gt;;&lt;/span&gt; &lt;span class=&quot;token comment&quot; style=&quot;&quot;&gt;// 收集子集，要放在终止添加的上面，否则会漏掉自己&lt;/span&gt;&lt;br&gt;        &lt;span class=&quot;token keyword&quot; style=&quot;&quot;&gt;if&lt;/span&gt; &lt;span class=&quot;token punctuation&quot; style=&quot;&quot;&gt;(&lt;/span&gt;startIndex &lt;span class=&quot;token operator&quot; style=&quot;&quot;&gt;&amp;gt;=&lt;/span&gt; nums&lt;span class=&quot;token punctuation&quot; style=&quot;&quot;&gt;.&lt;/span&gt;&lt;span class=&quot;token function&quot; style=&quot;&quot;&gt;size&lt;/span&gt;&lt;span class=&quot;token punctuation&quot; style=&quot;&quot;&gt;(&lt;/span&gt;&lt;span class=&quot;token punctuation&quot; style=&quot;&quot;&gt;)&lt;/span&gt;&lt;span class=&quot;token punctuation&quot; style=&quot;&quot;&gt;)&lt;/span&gt; &lt;span class=&quot;token punctuation&quot; style=&quot;&quot;&gt;{&lt;/span&gt; &lt;span class=&quot;token comment&quot; style=&quot;&quot;&gt;// 终止条件可以不加&lt;/span&gt;&lt;br&gt;            &lt;span class=&quot;token keyword&quot; style=&quot;&quot;&gt;return&lt;/span&gt;&lt;span class=&quot;token punctuation&quot; style=&quot;&quot;&gt;;&lt;/span&gt;&lt;br&gt;        &lt;span class=&quot;token punctuation&quot; style=&quot;&quot;&gt;}&lt;/span&gt;&lt;br&gt;        &lt;span class=&quot;token keyword&quot; style=&quot;&quot;&gt;for&lt;/span&gt; &lt;span class=&quot;token punctuation&quot; style=&quot;&quot;&gt;(&lt;/span&gt;&lt;span class=&quot;token keyword&quot; style=&quot;&quot;&gt;int&lt;/span&gt; i &lt;span class=&quot;token operator&quot; style=&quot;&quot;&gt;=&lt;/span&gt; startIndex&lt;span class=&quot;token punctuation&quot; style=&quot;&quot;&gt;;&lt;/span&gt; i &lt;span class=&quot;token operator&quot; style=&quot;&quot;&gt;&amp;lt;&lt;/span&gt; nums&lt;span class=&quot;token punctuation&quot; style=&quot;&quot;&gt;.&lt;/span&gt;&lt;span class=&quot;token function&quot; style=&quot;&quot;&gt;size&lt;/span&gt;&lt;span class=&quot;token punctuation&quot; style=&quot;&quot;&gt;(&lt;/span&gt;&lt;span class=&quot;token punctuation&quot; style=&quot;&quot;&gt;)&lt;/span&gt;&lt;span class=&quot;token punctuation&quot; style=&quot;&quot;&gt;;&lt;/span&gt; i&lt;span class=&quot;token operator&quot; style=&quot;&quot;&gt;++&lt;/span&gt;&lt;span class=&quot;token punctuation&quot; style=&quot;&quot;&gt;)&lt;/span&gt; &lt;span class=&quot;token punctuation&quot; style=&quot;&quot;&gt;{&lt;/span&gt;&lt;br&gt;            path&lt;span class=&quot;token punctuation&quot; style=&quot;&quot;&gt;.&lt;/span&gt;&lt;span class=&quot;token function&quot; style=&quot;&quot;&gt;push_back&lt;/span&gt;&lt;span class=&quot;token punctuation&quot; style=&quot;&quot;&gt;(&lt;/span&gt;nums&lt;span class=&quot;token punctuation&quot; style=&quot;&quot;&gt;[&lt;/span&gt;i&lt;span class=&quot;token punctuation&quot; style=&quot;&quot;&gt;]&lt;/span&gt;&lt;span class=&quot;token punctuation&quot; style=&quot;&quot;&gt;)&lt;/span&gt;&lt;span class=&quot;token punctuation&quot; style=&quot;&quot;&gt;;&lt;/span&gt;&lt;br&gt;            &lt;span class=&quot;token function&quot; style=&quot;&quot;&gt;backtracking&lt;/span&gt;&lt;span class=&quot;token punctuation&quot; style=&quot;&quot;&gt;(&lt;/span&gt;nums&lt;span class=&quot;token punctuation&quot; style=&quot;&quot;&gt;,&lt;/span&gt; i &lt;span class=&quot;token operator&quot; style=&quot;&quot;&gt;+&lt;/span&gt; &lt;span class=&quot;token number&quot; style=&quot;&quot;&gt;1&lt;/span&gt;&lt;span class=&quot;token punctuation&quot; style=&quot;&quot;&gt;)&lt;/span&gt;&lt;span class=&quot;token punctuation&quot; style=&quot;&quot;&gt;;&lt;/span&gt;&lt;br&gt;            path&lt;span class=&quot;token punctuation&quot; style=&quot;&quot;&gt;.&lt;/span&gt;&lt;span class=&quot;token function&quot; style=&quot;&quot;&gt;pop_back&lt;/span&gt;&lt;span class=&quot;token punctuation&quot; style=&quot;&quot;&gt;(&lt;/span&gt;&lt;span class=&quot;token punctuation&quot; style=&quot;&quot;&gt;)&lt;/span&gt;&lt;span class=&quot;token punctuation&quot; style=&quot;&quot;&gt;;&lt;/span&gt;&lt;br&gt;        &lt;span class=&quot;token punctuation&quot; style=&quot;&quot;&gt;}&lt;/span&gt;&lt;br&gt;    &lt;span class=&quot;token punctuation&quot; style=&quot;&quot;&gt;}&lt;/span&gt;&lt;br&gt;&lt;span class=&quot;token keyword&quot; style=&quot;&quot;&gt;public&lt;/span&gt;&lt;span class=&quot;token operator&quot; style=&quot;&quot;&gt;:&lt;/span&gt;&lt;br&gt;    vector&lt;span class=&quot;token operator&quot; style=&quot;&quot;&gt;&amp;lt;&lt;/span&gt;vector&lt;span class=&quot;token operator&quot; style=&quot;&quot;&gt;&amp;lt;&lt;/span&gt;&lt;span class=&quot;token keyword&quot; style=&quot;&quot;&gt;int&lt;/span&gt;&lt;span class=&quot;token operator&quot; style=&quot;&quot;&gt;&amp;gt;&amp;gt;&lt;/span&gt; &lt;span class=&quot;token function&quot; style=&quot;&quot;&gt;subsets&lt;/span&gt;&lt;span class=&quot;token punctuation&quot; style=&quot;&quot;&gt;(&lt;/span&gt;vector&lt;span class=&quot;token operator&quot; style=&quot;&quot;&gt;&amp;lt;&lt;/span&gt;&lt;span class=&quot;token keyword&quot; style=&quot;&quot;&gt;int&lt;/span&gt;&lt;span class=&quot;token operator&quot; style=&quot;&quot;&gt;&amp;gt;&lt;/span&gt;&lt;span class=&quot;token operator&quot; style=&quot;&quot;&gt;&amp;amp;&lt;/span&gt; nums&lt;span class=&quot;token punctuation&quot; style=&quot;&quot;&gt;)&lt;/span&gt; &lt;span class=&quot;token punctuation&quot; style=&quot;&quot;&gt;{&lt;/span&gt;&lt;br&gt;        result&lt;span class=&quot;token punctuation&quot; style=&quot;&quot;&gt;.&lt;/span&gt;&lt;span class=&quot;token function&quot; style=&quot;&quot;&gt;clear&lt;/span&gt;&lt;span class=&quot;token punctuation&quot; style=&quot;&quot;&gt;(&lt;/span&gt;&lt;span class=&quot;token punctuation&quot; style=&quot;&quot;&gt;)&lt;/span&gt;&lt;span class=&quot;token punctuation&quot; style=&quot;&quot;&gt;;&lt;/span&gt;&lt;br&gt;        path&lt;span class=&quot;token punctuation&quot; style=&quot;&quot;&gt;.&lt;/span&gt;&lt;span class=&quot;token function&quot; style=&quot;&quot;&gt;clear&lt;/span&gt;&lt;span class=&quot;token punctuation&quot; style=&quot;&quot;&gt;(&lt;/span&gt;&lt;span class=&quot;token punctuation&quot; style=&quot;&quot;&gt;)&lt;/span&gt;&lt;span class=&quot;token punctuation&quot; style=&quot;&quot;&gt;;&lt;/span&gt;&lt;br&gt;        &lt;span class=&quot;token function&quot; style=&quot;&quot;&gt;backtracking&lt;/span&gt;&lt;span class=&quot;token punctuation&quot; style=&quot;&quot;&gt;(&lt;/span&gt;nums&lt;span class=&quot;token punctuation&quot; style=&quot;&quot;&gt;,&lt;/span&gt; &lt;span class=&quot;token number&quot; style=&quot;&quot;&gt;0&lt;/span&gt;&lt;span class=&quot;token punctuation&quot; style=&quot;&quot;&gt;)&lt;/span&gt;&lt;span class=&quot;token punctuation&quot; style=&quot;&quot;&gt;;&lt;/span&gt;&lt;br&gt;        &lt;span class=&quot;token keyword&quot; style=&quot;&quot;&gt;return&lt;/span&gt; result&lt;span class=&quot;token punctuation&quot; style=&quot;&quot;&gt;;&lt;/span&gt;&lt;br&gt;    &lt;span class=&quot;token punctuation&quot; style=&quot;&quot;&gt;}&lt;/span&gt;&lt;br&gt;&lt;span class=&quot;token punctuation&quot; style=&quot;&quot;&gt;}&lt;/span&gt;&lt;span class=&quot;token punctuation&quot; style=&quot;&quot;&gt;;&lt;/span&gt;&lt;/b&gt;&lt;/code&gt;&lt;/pre&gt;" style="text;whiteSpace=wrap;html=1;" vertex="1" parent="1">
          <mxGeometry x="1206.9982176449425" y="-148.00382337068248" width="550" height="614" as="geometry" />
        </mxCell>
        <UserObject label="&lt;p style=&quot;line-height: 1.7; color: rgb(44, 62, 80); font-family: -apple-system, BlinkMacSystemFont, &amp;quot;Segoe UI&amp;quot;, Roboto, Oxygen, Ubuntu, Cantarell, &amp;quot;Fira Sans&amp;quot;, &amp;quot;Droid Sans&amp;quot;, &amp;quot;Helvetica Neue&amp;quot;, sans-serif; font-size: 16px; font-style: normal; font-variant-ligatures: normal; font-variant-caps: normal; font-weight: 400; letter-spacing: normal; orphans: 2; text-align: start; text-indent: 0px; text-transform: none; widows: 2; word-spacing: 0px; -webkit-text-stroke-width: 0px; white-space: normal; background-color: rgb(255, 255, 255); text-decoration-thickness: initial; text-decoration-style: initial; text-decoration-color: initial;&quot;&gt;给定一个 没有重复 数字的序列，返回其所有可能的全排列。&lt;/p&gt;&lt;p style=&quot;line-height: 1.7; color: rgb(44, 62, 80); font-family: -apple-system, BlinkMacSystemFont, &amp;quot;Segoe UI&amp;quot;, Roboto, Oxygen, Ubuntu, Cantarell, &amp;quot;Fira Sans&amp;quot;, &amp;quot;Droid Sans&amp;quot;, &amp;quot;Helvetica Neue&amp;quot;, sans-serif; font-size: 16px; font-style: normal; font-variant-ligatures: normal; font-variant-caps: normal; font-weight: 400; letter-spacing: normal; orphans: 2; text-align: start; text-indent: 0px; text-transform: none; widows: 2; word-spacing: 0px; -webkit-text-stroke-width: 0px; white-space: normal; background-color: rgb(255, 255, 255); text-decoration-thickness: initial; text-decoration-style: initial; text-decoration-color: initial;&quot;&gt;示例:&lt;/p&gt;&lt;ul style=&quot;padding-left: 1.2em; line-height: 1.7; color: rgb(44, 62, 80); font-family: -apple-system, BlinkMacSystemFont, &amp;quot;Segoe UI&amp;quot;, Roboto, Oxygen, Ubuntu, Cantarell, &amp;quot;Fira Sans&amp;quot;, &amp;quot;Droid Sans&amp;quot;, &amp;quot;Helvetica Neue&amp;quot;, sans-serif; font-size: 16px; font-style: normal; font-variant-ligatures: normal; font-variant-caps: normal; font-weight: 400; letter-spacing: normal; orphans: 2; text-align: start; text-indent: 0px; text-transform: none; widows: 2; word-spacing: 0px; -webkit-text-stroke-width: 0px; white-space: normal; background-color: rgb(255, 255, 255); text-decoration-thickness: initial; text-decoration-style: initial; text-decoration-color: initial;&quot;&gt;&lt;li&gt;输入: [1,2,3]&lt;/li&gt;&lt;li&gt;输出: [ [1,2,3], [1,3,2], [2,1,3], [2,3,1], [3,1,2], [3,2,1] ]&lt;/li&gt;&lt;/ul&gt;&lt;h2 id=&quot;算法公开课&quot; style=&quot;font-weight: 600; line-height: 1.25; font-size: 1.65rem; padding-bottom: 0.3rem; border-bottom: 1px solid rgb(234, 236, 239); margin-top: -3.1rem; padding-top: 4.6rem; margin-bottom: 0px; color: rgb(44, 62, 80); font-family: -apple-system, BlinkMacSystemFont, &amp;quot;Segoe UI&amp;quot;, Roboto, Oxygen, Ubuntu, Cantarell, &amp;quot;Fira Sans&amp;quot;, &amp;quot;Droid Sans&amp;quot;, &amp;quot;Helvetica Neue&amp;quot;, sans-serif; font-style: normal; font-variant-ligatures: normal; font-variant-caps: normal; letter-spacing: normal; orphans: 2; text-align: start; text-indent: 0px; text-transform: none; widows: 2; word-spacing: 0px; -webkit-text-stroke-width: 0px; white-space: normal; background-color: rgb(255, 255, 255); text-decoration-thickness: initial; text-decoration-style: initial; text-decoration-color: initial;&quot;&gt;&lt;a href=&quot;https://www.programmercarl.com/0046.%E5%85%A8%E6%8E%92%E5%88%97.html#%E7%AE%97%E6%B3%95%E5%85%AC%E5%BC%80%E8%AF%BE&quot; class=&quot;header-anchor&quot; style=&quot;font-weight: 500; text-decoration: none; color: rgb(62, 175, 124); font-size: 0.85em; float: left; margin-left: -0.87em; padding-right: 0.23em; margin-top: 0.125em; opacity: 0;&quot;&gt;#&lt;/a&gt;&lt;br&gt;&lt;/h2&gt;" link="&lt;p style=&quot;line-height: 1.7; color: rgb(44, 62, 80); font-family: -apple-system, BlinkMacSystemFont, &amp;quot;Segoe UI&amp;quot;, Roboto, Oxygen, Ubuntu, Cantarell, &amp;quot;Fira Sans&amp;quot;, &amp;quot;Droid Sans&amp;quot;, &amp;quot;Helvetica Neue&amp;quot;, sans-serif; font-size: 16px; font-style: normal; font-variant-ligatures: normal; font-variant-caps: normal; font-weight: 400; letter-spacing: normal; orphans: 2; text-align: start; text-indent: 0px; text-transform: none; widows: 2; word-spacing: 0px; -webkit-text-stroke-width: 0px; white-space: normal; background-color: rgb(255, 255, 255); text-decoration-thickness: initial; text-decoration-style: initial; text-decoration-color: initial;&quot;&gt;给定一个 没有重复 数字的序列，返回其所有可能的全排列。&lt;/p&gt;&lt;p style=&quot;line-height: 1.7; color: rgb(44, 62, 80); font-family: -apple-system, BlinkMacSystemFont, &amp;quot;Segoe UI&amp;quot;, Roboto, Oxygen, Ubuntu, Cantarell, &amp;quot;Fira Sans&amp;quot;, &amp;quot;Droid Sans&amp;quot;, &amp;quot;Helvetica Neue&amp;quot;, sans-serif; font-size: 16px; font-style: normal; font-variant-ligatures: normal; font-variant-caps: normal; font-weight: 400; letter-spacing: normal; orphans: 2; text-align: start; text-indent: 0px; text-transform: none; widows: 2; word-spacing: 0px; -webkit-text-stroke-width: 0px; white-space: normal; background-color: rgb(255, 255, 255); text-decoration-thickness: initial; text-decoration-style: initial; text-decoration-color: initial;&quot;&gt;示例:&lt;/p&gt;&lt;ul style=&quot;padding-left: 1.2em; line-height: 1.7; color: rgb(44, 62, 80); font-family: -apple-system, BlinkMacSystemFont, &amp;quot;Segoe UI&amp;quot;, Roboto, Oxygen, Ubuntu, Cantarell, &amp;quot;Fira Sans&amp;quot;, &amp;quot;Droid Sans&amp;quot;, &amp;quot;Helvetica Neue&amp;quot;, sans-serif; font-size: 16px; font-style: normal; font-variant-ligatures: normal; font-variant-caps: normal; font-weight: 400; letter-spacing: normal; orphans: 2; text-align: start; text-indent: 0px; text-transform: none; widows: 2; word-spacing: 0px; -webkit-text-stroke-width: 0px; white-space: normal; background-color: rgb(255, 255, 255); text-decoration-thickness: initial; text-decoration-style: initial; text-decoration-color: initial;&quot;&gt;&lt;li&gt;输入: [1,2,3]&lt;/li&gt;&lt;li&gt;输出: [ [1,2,3], [1,3,2], [2,1,3], [2,3,1], [3,1,2], [3,2,1] ]&lt;/li&gt;&lt;/ul&gt;&lt;h2 id=&quot;算法公开课&quot; style=&quot;font-weight: 600; line-height: 1.25; font-size: 1.65rem; padding-bottom: 0.3rem; border-bottom: 1px solid rgb(234, 236, 239); margin-top: -3.1rem; padding-top: 4.6rem; margin-bottom: 0px; color: rgb(44, 62, 80); font-family: -apple-system, BlinkMacSystemFont, &amp;quot;Segoe UI&amp;quot;, Roboto, Oxygen, Ubuntu, Cantarell, &amp;quot;Fira Sans&amp;quot;, &amp;quot;Droid Sans&amp;quot;, &amp;quot;Helvetica Neue&amp;quot;, sans-serif; font-style: normal; font-variant-ligatures: normal; font-variant-caps: normal; letter-spacing: normal; orphans: 2; text-align: start; text-indent: 0px; text-transform: none; widows: 2; word-spacing: 0px; -webkit-text-stroke-width: 0px; white-space: normal; background-color: rgb(255, 255, 255); text-decoration-thickness: initial; text-decoration-style: initial; text-decoration-color: initial;&quot;&gt;&lt;a href=&quot;https://www.programmercarl.com/0046.%E5%85%A8%E6%8E%92%E5%88%97.html#%E7%AE%97%E6%B3%95%E5%85%AC%E5%BC%80%E8%AF%BE&quot; class=&quot;header-anchor&quot; style=&quot;font-weight: 500; text-decoration: none; color: rgb(62, 175, 124); font-size: 0.85em; float: left; margin-left: -0.87em; padding-right: 0.23em; margin-top: 0.125em; opacity: 0;&quot;&gt;#&lt;/a&gt;算法公开课&lt;/h2&gt;" id="CqxgGtcZtNKs-9hgngda-15">
          <mxCell style="text;whiteSpace=wrap;html=1;" vertex="1" parent="1">
            <mxGeometry x="1955.0048171515218" y="-358.5038233706825" width="453" height="257" as="geometry" />
          </mxCell>
        </UserObject>
        <mxCell id="CqxgGtcZtNKs-9hgngda-16" value="&lt;h2 id=&quot;算法公开课&quot; style=&quot;forced-color-adjust: none; font-style: normal; font-variant-ligatures: normal; font-variant-caps: normal; letter-spacing: normal; orphans: 2; text-indent: 0px; text-transform: none; widows: 2; word-spacing: 0px; -webkit-text-stroke-width: 0px; white-space: normal; text-decoration-thickness: initial; text-decoration-style: initial; text-decoration-color: initial; font-weight: 600; line-height: 1.25; font-size: 1.65rem; padding-bottom: 0.3rem; border-bottom: 1px solid rgb(234, 236, 239); margin-top: -3.1rem; padding-top: 4.6rem; margin-bottom: 0px; color: rgb(44, 62, 80); font-family: -apple-system, BlinkMacSystemFont, &amp;quot;Segoe UI&amp;quot;, Roboto, Oxygen, Ubuntu, Cantarell, &amp;quot;Fira Sans&amp;quot;, &amp;quot;Droid Sans&amp;quot;, &amp;quot;Helvetica Neue&amp;quot;, sans-serif; text-align: start; background-color: rgb(255, 255, 255);&quot;&gt;全排列&lt;/h2&gt;" style="text;whiteSpace=wrap;html=1;" vertex="1" parent="1">
          <mxGeometry x="2076.159054404811" y="-428.7488082082648" width="160" height="85" as="geometry" />
        </mxCell>
        <mxCell id="CqxgGtcZtNKs-9hgngda-17" value="&lt;h2 id=&quot;算法公开课&quot; style=&quot;forced-color-adjust: none; font-style: normal; font-variant-ligatures: normal; font-variant-caps: normal; letter-spacing: normal; orphans: 2; text-indent: 0px; text-transform: none; widows: 2; word-spacing: 0px; -webkit-text-stroke-width: 0px; white-space: normal; text-decoration-thickness: initial; text-decoration-style: initial; text-decoration-color: initial; font-weight: 600; line-height: 1.25; font-size: 1.65rem; padding-bottom: 0.3rem; border-bottom: 1px solid rgb(234, 236, 239); margin-top: -3.1rem; padding-top: 4.6rem; margin-bottom: 0px; color: rgb(44, 62, 80); font-family: -apple-system, BlinkMacSystemFont, &amp;quot;Segoe UI&amp;quot;, Roboto, Oxygen, Ubuntu, Cantarell, &amp;quot;Fira Sans&amp;quot;, &amp;quot;Droid Sans&amp;quot;, &amp;quot;Helvetica Neue&amp;quot;, sans-serif; text-align: start; background-color: rgb(255, 255, 255);&quot;&gt;子集&lt;/h2&gt;" style="text;whiteSpace=wrap;html=1;" vertex="1" parent="1">
          <mxGeometry x="1279.999054404811" y="-434.9988082082648" width="160" height="85" as="geometry" />
        </mxCell>
        <mxCell id="CqxgGtcZtNKs-9hgngda-18" value="&lt;h2 id=&quot;算法公开课&quot; style=&quot;forced-color-adjust: none; font-style: normal; font-variant-ligatures: normal; font-variant-caps: normal; letter-spacing: normal; orphans: 2; text-indent: 0px; text-transform: none; widows: 2; word-spacing: 0px; -webkit-text-stroke-width: 0px; white-space: normal; text-decoration-thickness: initial; text-decoration-style: initial; text-decoration-color: initial; font-weight: 600; line-height: 1.25; font-size: 1.65rem; padding-bottom: 0.3rem; border-bottom: 1px solid rgb(234, 236, 239); margin-top: -3.1rem; padding-top: 4.6rem; margin-bottom: 0px; color: rgb(44, 62, 80); font-family: -apple-system, BlinkMacSystemFont, &amp;quot;Segoe UI&amp;quot;, Roboto, Oxygen, Ubuntu, Cantarell, &amp;quot;Fira Sans&amp;quot;, &amp;quot;Droid Sans&amp;quot;, &amp;quot;Helvetica Neue&amp;quot;, sans-serif; text-align: start; background-color: rgb(255, 255, 255);&quot;&gt;组合&lt;/h2&gt;" style="text;whiteSpace=wrap;html=1;" vertex="1" parent="1">
          <mxGeometry x="660.999054404811" y="-356.9988082082648" width="160" height="85" as="geometry" />
        </mxCell>
        <mxCell id="CqxgGtcZtNKs-9hgngda-19" value="&lt;pre class=&quot;language-cpp&quot; style=&quot;background: transparent; font-family: Consolas, Monaco, &amp;quot;Andale Mono&amp;quot;, &amp;quot;Ubuntu Mono&amp;quot;, monospace; font-size: 16px; text-align: left; white-space: pre; word-spacing: 0px; word-break: normal; overflow-wrap: normal; line-height: 1.4; tab-size: 4; hyphens: none; padding: 1.25rem 1.5rem 1.25rem 4.5rem; margin: 0.85rem 0px; overflow: auto; border-radius: 6px; position: relative; z-index: 1; vertical-align: middle; font-style: normal; font-variant-ligatures: normal; font-variant-caps: normal; letter-spacing: normal; orphans: 2; text-indent: 0px; text-transform: none; widows: 2; -webkit-text-stroke-width: 0px; text-decoration-thickness: initial; text-decoration-style: initial; text-decoration-color: initial;&quot;&gt;&lt;code style=&quot;font-family: source-code-pro, Menlo, Monaco, Consolas, &amp;quot;Courier New&amp;quot;, monospace; padding: 0px; margin: 0px; font-size: 0.85em; background-color: transparent; border-radius: 0px;&quot;&gt;&lt;b style=&quot;&quot;&gt;&lt;span class=&quot;token keyword&quot; style=&quot;&quot;&gt;class&lt;/span&gt; &lt;span class=&quot;token class-name&quot; style=&quot;&quot;&gt;Solution&lt;/span&gt; &lt;span class=&quot;token punctuation&quot; style=&quot;&quot;&gt;{&lt;/span&gt;&lt;br&gt;&lt;span class=&quot;token keyword&quot; style=&quot;&quot;&gt;public&lt;/span&gt;&lt;span class=&quot;token operator&quot; style=&quot;&quot;&gt;:&lt;/span&gt;&lt;br&gt;    vector&lt;span class=&quot;token operator&quot; style=&quot;&quot;&gt;&amp;lt;&lt;/span&gt;vector&lt;span class=&quot;token operator&quot; style=&quot;&quot;&gt;&amp;lt;&lt;/span&gt;&lt;span class=&quot;token keyword&quot; style=&quot;&quot;&gt;int&lt;/span&gt;&lt;span class=&quot;token operator&quot; style=&quot;&quot;&gt;&amp;gt;&amp;gt;&lt;/span&gt; result&lt;span class=&quot;token punctuation&quot; style=&quot;&quot;&gt;;&lt;/span&gt;&lt;br&gt;    vector&lt;span class=&quot;token operator&quot; style=&quot;&quot;&gt;&amp;lt;&lt;/span&gt;&lt;span class=&quot;token keyword&quot; style=&quot;&quot;&gt;int&lt;/span&gt;&lt;span class=&quot;token operator&quot; style=&quot;&quot;&gt;&amp;gt;&lt;/span&gt; path&lt;span class=&quot;token punctuation&quot; style=&quot;&quot;&gt;;&lt;/span&gt;&lt;br&gt;    &lt;span class=&quot;token keyword&quot; style=&quot;&quot;&gt;void&lt;/span&gt; &lt;span class=&quot;token function&quot; style=&quot;&quot;&gt;backtracking&lt;/span&gt; &lt;span class=&quot;token punctuation&quot; style=&quot;&quot;&gt;(&lt;/span&gt;vector&lt;span class=&quot;token operator&quot; style=&quot;&quot;&gt;&amp;lt;&lt;/span&gt;&lt;span class=&quot;token keyword&quot; style=&quot;&quot;&gt;int&lt;/span&gt;&lt;span class=&quot;token operator&quot; style=&quot;&quot;&gt;&amp;gt;&lt;/span&gt;&lt;span class=&quot;token operator&quot; style=&quot;&quot;&gt;&amp;amp;&lt;/span&gt; nums&lt;span class=&quot;token punctuation&quot; style=&quot;&quot;&gt;,&lt;/span&gt; vector&lt;span class=&quot;token operator&quot; style=&quot;&quot;&gt;&amp;lt;&lt;/span&gt;&lt;span class=&quot;token keyword&quot; style=&quot;&quot;&gt;bool&lt;/span&gt;&lt;span class=&quot;token operator&quot; style=&quot;&quot;&gt;&amp;gt;&lt;/span&gt;&lt;span class=&quot;token operator&quot; style=&quot;&quot;&gt;&amp;amp;&lt;/span&gt; used&lt;span class=&quot;token punctuation&quot; style=&quot;&quot;&gt;)&lt;/span&gt; &lt;span class=&quot;token punctuation&quot; style=&quot;&quot;&gt;{&lt;/span&gt;&lt;br&gt;        &lt;span class=&quot;token comment&quot; style=&quot;&quot;&gt;// 此时说明找到了一组&lt;/span&gt;&lt;br&gt;        &lt;span class=&quot;token keyword&quot; style=&quot;&quot;&gt;if&lt;/span&gt; &lt;span class=&quot;token punctuation&quot; style=&quot;&quot;&gt;(&lt;/span&gt;path&lt;span class=&quot;token punctuation&quot; style=&quot;&quot;&gt;.&lt;/span&gt;&lt;span class=&quot;token function&quot; style=&quot;&quot;&gt;size&lt;/span&gt;&lt;span class=&quot;token punctuation&quot; style=&quot;&quot;&gt;(&lt;/span&gt;&lt;span class=&quot;token punctuation&quot; style=&quot;&quot;&gt;)&lt;/span&gt; &lt;span class=&quot;token operator&quot; style=&quot;&quot;&gt;==&lt;/span&gt; nums&lt;span class=&quot;token punctuation&quot; style=&quot;&quot;&gt;.&lt;/span&gt;&lt;span class=&quot;token function&quot; style=&quot;&quot;&gt;size&lt;/span&gt;&lt;span class=&quot;token punctuation&quot; style=&quot;&quot;&gt;(&lt;/span&gt;&lt;span class=&quot;token punctuation&quot; style=&quot;&quot;&gt;)&lt;/span&gt;&lt;span class=&quot;token punctuation&quot; style=&quot;&quot;&gt;)&lt;/span&gt; &lt;span class=&quot;token punctuation&quot; style=&quot;&quot;&gt;{&lt;/span&gt;&lt;br&gt;            result&lt;span class=&quot;token punctuation&quot; style=&quot;&quot;&gt;.&lt;/span&gt;&lt;span class=&quot;token function&quot; style=&quot;&quot;&gt;push_back&lt;/span&gt;&lt;span class=&quot;token punctuation&quot; style=&quot;&quot;&gt;(&lt;/span&gt;path&lt;span class=&quot;token punctuation&quot; style=&quot;&quot;&gt;)&lt;/span&gt;&lt;span class=&quot;token punctuation&quot; style=&quot;&quot;&gt;;&lt;/span&gt;&lt;br&gt;            &lt;span class=&quot;token keyword&quot; style=&quot;&quot;&gt;return&lt;/span&gt;&lt;span class=&quot;token punctuation&quot; style=&quot;&quot;&gt;;&lt;/span&gt;&lt;br&gt;        &lt;span class=&quot;token punctuation&quot; style=&quot;&quot;&gt;}&lt;/span&gt;&lt;br&gt;        &lt;span class=&quot;token keyword&quot; style=&quot;&quot;&gt;for&lt;/span&gt; &lt;span class=&quot;token punctuation&quot; style=&quot;&quot;&gt;(&lt;/span&gt;&lt;span class=&quot;token keyword&quot; style=&quot;&quot;&gt;int&lt;/span&gt; i &lt;span class=&quot;token operator&quot; style=&quot;&quot;&gt;=&lt;/span&gt; &lt;span class=&quot;token number&quot; style=&quot;&quot;&gt;0&lt;/span&gt;&lt;span class=&quot;token punctuation&quot; style=&quot;&quot;&gt;;&lt;/span&gt; i &lt;span class=&quot;token operator&quot; style=&quot;&quot;&gt;&amp;lt;&lt;/span&gt; nums&lt;span class=&quot;token punctuation&quot; style=&quot;&quot;&gt;.&lt;/span&gt;&lt;span class=&quot;token function&quot; style=&quot;&quot;&gt;size&lt;/span&gt;&lt;span class=&quot;token punctuation&quot; style=&quot;&quot;&gt;(&lt;/span&gt;&lt;span class=&quot;token punctuation&quot; style=&quot;&quot;&gt;)&lt;/span&gt;&lt;span class=&quot;token punctuation&quot; style=&quot;&quot;&gt;;&lt;/span&gt; i&lt;span class=&quot;token operator&quot; style=&quot;&quot;&gt;++&lt;/span&gt;&lt;span class=&quot;token punctuation&quot; style=&quot;&quot;&gt;)&lt;/span&gt; &lt;span class=&quot;token punctuation&quot; style=&quot;&quot;&gt;{&lt;/span&gt;&lt;br&gt;            &lt;span class=&quot;token keyword&quot; style=&quot;&quot;&gt;if&lt;/span&gt; &lt;span class=&quot;token punctuation&quot; style=&quot;&quot;&gt;(&lt;/span&gt;used&lt;span class=&quot;token punctuation&quot; style=&quot;&quot;&gt;[&lt;/span&gt;i&lt;span class=&quot;token punctuation&quot; style=&quot;&quot;&gt;]&lt;/span&gt; &lt;span class=&quot;token operator&quot; style=&quot;&quot;&gt;==&lt;/span&gt; &lt;span class=&quot;token boolean&quot; style=&quot;&quot;&gt;true&lt;/span&gt;&lt;span class=&quot;token punctuation&quot; style=&quot;&quot;&gt;)&lt;/span&gt; &lt;span class=&quot;token keyword&quot; style=&quot;&quot;&gt;continue&lt;/span&gt;&lt;span class=&quot;token punctuation&quot; style=&quot;&quot;&gt;;&lt;/span&gt; &lt;span class=&quot;token comment&quot; style=&quot;&quot;&gt;// path里已经收录的元素，直接跳过&lt;/span&gt;&lt;br&gt;            used&lt;span class=&quot;token punctuation&quot; style=&quot;&quot;&gt;[&lt;/span&gt;i&lt;span class=&quot;token punctuation&quot; style=&quot;&quot;&gt;]&lt;/span&gt; &lt;span class=&quot;token operator&quot; style=&quot;&quot;&gt;=&lt;/span&gt; &lt;span class=&quot;token boolean&quot; style=&quot;&quot;&gt;true&lt;/span&gt;&lt;span class=&quot;token punctuation&quot; style=&quot;&quot;&gt;;&lt;/span&gt;&lt;br&gt;            path&lt;span class=&quot;token punctuation&quot; style=&quot;&quot;&gt;.&lt;/span&gt;&lt;span class=&quot;token function&quot; style=&quot;&quot;&gt;push_back&lt;/span&gt;&lt;span class=&quot;token punctuation&quot; style=&quot;&quot;&gt;(&lt;/span&gt;nums&lt;span class=&quot;token punctuation&quot; style=&quot;&quot;&gt;[&lt;/span&gt;i&lt;span class=&quot;token punctuation&quot; style=&quot;&quot;&gt;]&lt;/span&gt;&lt;span class=&quot;token punctuation&quot; style=&quot;&quot;&gt;)&lt;/span&gt;&lt;span class=&quot;token punctuation&quot; style=&quot;&quot;&gt;;&lt;/span&gt;&lt;br&gt;            &lt;font color=&quot;#ff3333&quot;&gt;&lt;span class=&quot;token function&quot; style=&quot;&quot;&gt;backtracking&lt;/span&gt;&lt;span class=&quot;token punctuation&quot; style=&quot;&quot;&gt;(&lt;/span&gt;nums&lt;span class=&quot;token punctuation&quot; style=&quot;&quot;&gt;,&lt;/span&gt; used&lt;span class=&quot;token punctuation&quot; style=&quot;&quot;&gt;)&lt;/span&gt;&lt;span class=&quot;token punctuation&quot; style=&quot;&quot;&gt;;&lt;/span&gt;&lt;/font&gt;&lt;br&gt;            path&lt;span class=&quot;token punctuation&quot; style=&quot;&quot;&gt;.&lt;/span&gt;&lt;span class=&quot;token function&quot; style=&quot;&quot;&gt;pop_back&lt;/span&gt;&lt;span class=&quot;token punctuation&quot; style=&quot;&quot;&gt;(&lt;/span&gt;&lt;span class=&quot;token punctuation&quot; style=&quot;&quot;&gt;)&lt;/span&gt;&lt;span class=&quot;token punctuation&quot; style=&quot;&quot;&gt;;&lt;/span&gt;&lt;br&gt;            used&lt;span class=&quot;token punctuation&quot; style=&quot;&quot;&gt;[&lt;/span&gt;i&lt;span class=&quot;token punctuation&quot; style=&quot;&quot;&gt;]&lt;/span&gt; &lt;span class=&quot;token operator&quot; style=&quot;&quot;&gt;=&lt;/span&gt; &lt;span class=&quot;token boolean&quot; style=&quot;&quot;&gt;false&lt;/span&gt;&lt;span class=&quot;token punctuation&quot; style=&quot;&quot;&gt;;&lt;/span&gt;&lt;br&gt;        &lt;span class=&quot;token punctuation&quot; style=&quot;&quot;&gt;}&lt;/span&gt;&lt;br&gt;    &lt;span class=&quot;token punctuation&quot; style=&quot;&quot;&gt;}&lt;/span&gt;&lt;br&gt;    vector&lt;span class=&quot;token operator&quot; style=&quot;&quot;&gt;&amp;lt;&lt;/span&gt;vector&lt;span class=&quot;token operator&quot; style=&quot;&quot;&gt;&amp;lt;&lt;/span&gt;&lt;span class=&quot;token keyword&quot; style=&quot;&quot;&gt;int&lt;/span&gt;&lt;span class=&quot;token operator&quot; style=&quot;&quot;&gt;&amp;gt;&amp;gt;&lt;/span&gt; &lt;span class=&quot;token function&quot; style=&quot;&quot;&gt;permute&lt;/span&gt;&lt;span class=&quot;token punctuation&quot; style=&quot;&quot;&gt;(&lt;/span&gt;vector&lt;span class=&quot;token operator&quot; style=&quot;&quot;&gt;&amp;lt;&lt;/span&gt;&lt;span class=&quot;token keyword&quot; style=&quot;&quot;&gt;int&lt;/span&gt;&lt;span class=&quot;token operator&quot; style=&quot;&quot;&gt;&amp;gt;&lt;/span&gt;&lt;span class=&quot;token operator&quot; style=&quot;&quot;&gt;&amp;amp;&lt;/span&gt; nums&lt;span class=&quot;token punctuation&quot; style=&quot;&quot;&gt;)&lt;/span&gt; &lt;span class=&quot;token punctuation&quot; style=&quot;&quot;&gt;{&lt;/span&gt;&lt;br&gt;        result&lt;span class=&quot;token punctuation&quot; style=&quot;&quot;&gt;.&lt;/span&gt;&lt;span class=&quot;token function&quot; style=&quot;&quot;&gt;clear&lt;/span&gt;&lt;span class=&quot;token punctuation&quot; style=&quot;&quot;&gt;(&lt;/span&gt;&lt;span class=&quot;token punctuation&quot; style=&quot;&quot;&gt;)&lt;/span&gt;&lt;span class=&quot;token punctuation&quot; style=&quot;&quot;&gt;;&lt;/span&gt;&lt;br&gt;        path&lt;span class=&quot;token punctuation&quot; style=&quot;&quot;&gt;.&lt;/span&gt;&lt;span class=&quot;token function&quot; style=&quot;&quot;&gt;clear&lt;/span&gt;&lt;span class=&quot;token punctuation&quot; style=&quot;&quot;&gt;(&lt;/span&gt;&lt;span class=&quot;token punctuation&quot; style=&quot;&quot;&gt;)&lt;/span&gt;&lt;span class=&quot;token punctuation&quot; style=&quot;&quot;&gt;;&lt;/span&gt;&lt;br&gt;        vector&lt;span class=&quot;token operator&quot; style=&quot;&quot;&gt;&amp;lt;&lt;/span&gt;&lt;span class=&quot;token keyword&quot; style=&quot;&quot;&gt;bool&lt;/span&gt;&lt;span class=&quot;token operator&quot; style=&quot;&quot;&gt;&amp;gt;&lt;/span&gt; &lt;span class=&quot;token function&quot; style=&quot;&quot;&gt;used&lt;/span&gt;&lt;span class=&quot;token punctuation&quot; style=&quot;&quot;&gt;(&lt;/span&gt;nums&lt;span class=&quot;token punctuation&quot; style=&quot;&quot;&gt;.&lt;/span&gt;&lt;span class=&quot;token function&quot; style=&quot;&quot;&gt;size&lt;/span&gt;&lt;span class=&quot;token punctuation&quot; style=&quot;&quot;&gt;(&lt;/span&gt;&lt;span class=&quot;token punctuation&quot; style=&quot;&quot;&gt;)&lt;/span&gt;&lt;span class=&quot;token punctuation&quot; style=&quot;&quot;&gt;,&lt;/span&gt; &lt;span class=&quot;token boolean&quot; style=&quot;&quot;&gt;false&lt;/span&gt;&lt;span class=&quot;token punctuation&quot; style=&quot;&quot;&gt;)&lt;/span&gt;&lt;span class=&quot;token punctuation&quot; style=&quot;&quot;&gt;;&lt;/span&gt;&lt;br&gt;        &lt;span class=&quot;token function&quot; style=&quot;&quot;&gt;backtracking&lt;/span&gt;&lt;span class=&quot;token punctuation&quot; style=&quot;&quot;&gt;(&lt;/span&gt;nums&lt;span class=&quot;token punctuation&quot; style=&quot;&quot;&gt;,&lt;/span&gt; used&lt;span class=&quot;token punctuation&quot; style=&quot;&quot;&gt;)&lt;/span&gt;&lt;span class=&quot;token punctuation&quot; style=&quot;&quot;&gt;;&lt;/span&gt;&lt;br&gt;        &lt;span class=&quot;token keyword&quot; style=&quot;&quot;&gt;return&lt;/span&gt; result&lt;span class=&quot;token punctuation&quot; style=&quot;&quot;&gt;;&lt;/span&gt;&lt;br&gt;    &lt;span class=&quot;token punctuation&quot; style=&quot;&quot;&gt;}&lt;/span&gt;&lt;br&gt;&lt;span class=&quot;token punctuation&quot; style=&quot;&quot;&gt;}&lt;/span&gt;&lt;span class=&quot;token punctuation&quot; style=&quot;&quot;&gt;;&lt;/span&gt;&lt;/b&gt;&lt;/code&gt;&lt;/pre&gt;" style="text;whiteSpace=wrap;html=1;" vertex="1" parent="1">
          <mxGeometry x="1898.9969908728965" y="-202.00088397686304" width="550" height="704" as="geometry" />
        </mxCell>
        <mxCell id="CqxgGtcZtNKs-9hgngda-20" value="&lt;p style=&quot;line-height: 1.7; color: rgb(44, 62, 80); font-family: -apple-system, BlinkMacSystemFont, &amp;quot;Segoe UI&amp;quot;, Roboto, Oxygen, Ubuntu, Cantarell, &amp;quot;Fira Sans&amp;quot;, &amp;quot;Droid Sans&amp;quot;, &amp;quot;Helvetica Neue&amp;quot;, sans-serif; font-size: 16px; font-style: normal; font-variant-ligatures: normal; font-variant-caps: normal; font-weight: 400; letter-spacing: normal; orphans: 2; text-align: start; text-indent: 0px; text-transform: none; widows: 2; word-spacing: 0px; -webkit-text-stroke-width: 0px; white-space: normal; background-color: rgb(255, 255, 255); text-decoration-thickness: initial; text-decoration-style: initial; text-decoration-color: initial;&quot;&gt;最大的不同就是for循环里不用startIndex了。&lt;/p&gt;&lt;p style=&quot;line-height: 1.7; color: rgb(44, 62, 80); font-family: -apple-system, BlinkMacSystemFont, &amp;quot;Segoe UI&amp;quot;, Roboto, Oxygen, Ubuntu, Cantarell, &amp;quot;Fira Sans&amp;quot;, &amp;quot;Droid Sans&amp;quot;, &amp;quot;Helvetica Neue&amp;quot;, sans-serif; font-size: 16px; font-style: normal; font-variant-ligatures: normal; font-variant-caps: normal; font-weight: 400; letter-spacing: normal; orphans: 2; text-align: start; text-indent: 0px; text-transform: none; widows: 2; word-spacing: 0px; -webkit-text-stroke-width: 0px; white-space: normal; background-color: rgb(255, 255, 255); text-decoration-thickness: initial; text-decoration-style: initial; text-decoration-color: initial;&quot;&gt;因为排列问题，每次都要从头开始搜索，例如元素1在[1,2]中已经使用过了，但是在[2,1]中还要再使用一次1。&lt;/p&gt;" style="text;whiteSpace=wrap;html=1;" vertex="1" parent="1">
          <mxGeometry x="2291.9979957580567" y="116.99781143188477" width="550" height="152" as="geometry" />
        </mxCell>
        <UserObject label="&lt;h1 id=&quot;_131-分割回文串&quot; style=&quot;font-weight: 600; line-height: 1.25; font-size: 2.2rem; margin-top: -3.1rem; padding-top: 4.6rem; margin-bottom: 0px; color: rgb(44, 62, 80); font-family: -apple-system, BlinkMacSystemFont, &amp;quot;Segoe UI&amp;quot;, Roboto, Oxygen, Ubuntu, Cantarell, &amp;quot;Fira Sans&amp;quot;, &amp;quot;Droid Sans&amp;quot;, &amp;quot;Helvetica Neue&amp;quot;, sans-serif; font-style: normal; font-variant-ligatures: normal; font-variant-caps: normal; letter-spacing: normal; orphans: 2; text-align: start; text-indent: 0px; text-transform: none; widows: 2; word-spacing: 0px; -webkit-text-stroke-width: 0px; white-space: normal; background-color: rgb(255, 255, 255); text-decoration-thickness: initial; text-decoration-style: initial; text-decoration-color: initial;&quot;&gt;分割回文串&lt;/h1&gt;&lt;p style=&quot;line-height: 1.7; color: rgb(44, 62, 80); font-family: -apple-system, BlinkMacSystemFont, &amp;quot;Segoe UI&amp;quot;, Roboto, Oxygen, Ubuntu, Cantarell, &amp;quot;Fira Sans&amp;quot;, &amp;quot;Droid Sans&amp;quot;, &amp;quot;Helvetica Neue&amp;quot;, sans-serif; font-size: 16px; font-style: normal; font-variant-ligatures: normal; font-variant-caps: normal; font-weight: 400; letter-spacing: normal; orphans: 2; text-align: start; text-indent: 0px; text-transform: none; widows: 2; word-spacing: 0px; -webkit-text-stroke-width: 0px; white-space: normal; background-color: rgb(255, 255, 255); text-decoration-thickness: initial; text-decoration-style: initial; text-decoration-color: initial;&quot;&gt;&lt;a href=&quot;https://leetcode.cn/problems/palindrome-partitioning/&quot; target=&quot;_blank&quot; rel=&quot;noopener noreferrer&quot; style=&quot;font-weight: 500; text-decoration: none; color: rgb(62, 175, 124);&quot;&gt;力扣题目链接&lt;span&gt;&lt;svg xmlns=&quot;http://www.w3.org/2000/svg&quot; aria-hidden=&quot;true&quot; x=&quot;0px&quot; y=&quot;0px&quot; viewBox=&quot;0 0 100 100&quot; width=&quot;15&quot; height=&quot;15&quot; class=&quot;icon outbound&quot;&gt;&lt;path fill=&quot;currentColor&quot; d=&quot;M18.8,85.1h56l0,0c2.2,0,4-1.8,4-4v-32h-8v28h-48v-48h28v-8h-32l0,0c-2.2,0-4,1.8-4,4v56C14.8,83.3,16.6,85.1,18.8,85.1z&quot;&gt;&lt;/path&gt;&lt;polygon fill=&quot;currentColor&quot; points=&quot;45.7,48.7 51.3,54.3 77.2,28.5 77.2,37.2 85.2,37.2 85.2,14.9 62.8,14.9 62.8,22.9 71.5,22.9&quot;&gt;&lt;/polygon&gt;&lt;/svg&gt;&lt;span class=&quot;sr-only&quot; style=&quot;position: absolute; width: 1px; height: 1px; padding: 0px; margin: -1px; overflow: hidden; clip: rect(0px, 0px, 0px, 0px); white-space: nowrap; border-width: 0px;&quot;&gt;(opens new window)&lt;/span&gt;&lt;/span&gt;&lt;/a&gt;&lt;/p&gt;&lt;p style=&quot;line-height: 1.7; color: rgb(44, 62, 80); font-family: -apple-system, BlinkMacSystemFont, &amp;quot;Segoe UI&amp;quot;, Roboto, Oxygen, Ubuntu, Cantarell, &amp;quot;Fira Sans&amp;quot;, &amp;quot;Droid Sans&amp;quot;, &amp;quot;Helvetica Neue&amp;quot;, sans-serif; font-size: 16px; font-style: normal; font-variant-ligatures: normal; font-variant-caps: normal; font-weight: 400; letter-spacing: normal; orphans: 2; text-align: start; text-indent: 0px; text-transform: none; widows: 2; word-spacing: 0px; -webkit-text-stroke-width: 0px; white-space: normal; background-color: rgb(255, 255, 255); text-decoration-thickness: initial; text-decoration-style: initial; text-decoration-color: initial;&quot;&gt;给定一个字符串 s，将 s 分割成一些子串，使每个子串都是回文串。&lt;/p&gt;&lt;p style=&quot;line-height: 1.7; color: rgb(44, 62, 80); font-family: -apple-system, BlinkMacSystemFont, &amp;quot;Segoe UI&amp;quot;, Roboto, Oxygen, Ubuntu, Cantarell, &amp;quot;Fira Sans&amp;quot;, &amp;quot;Droid Sans&amp;quot;, &amp;quot;Helvetica Neue&amp;quot;, sans-serif; font-size: 16px; font-style: normal; font-variant-ligatures: normal; font-variant-caps: normal; font-weight: 400; letter-spacing: normal; orphans: 2; text-align: start; text-indent: 0px; text-transform: none; widows: 2; word-spacing: 0px; -webkit-text-stroke-width: 0px; white-space: normal; background-color: rgb(255, 255, 255); text-decoration-thickness: initial; text-decoration-style: initial; text-decoration-color: initial;&quot;&gt;返回 s 所有可能的分割方案。&lt;/p&gt;&lt;p style=&quot;line-height: 1.7; color: rgb(44, 62, 80); font-family: -apple-system, BlinkMacSystemFont, &amp;quot;Segoe UI&amp;quot;, Roboto, Oxygen, Ubuntu, Cantarell, &amp;quot;Fira Sans&amp;quot;, &amp;quot;Droid Sans&amp;quot;, &amp;quot;Helvetica Neue&amp;quot;, sans-serif; font-size: 16px; font-style: normal; font-variant-ligatures: normal; font-variant-caps: normal; font-weight: 400; letter-spacing: normal; orphans: 2; text-align: start; text-indent: 0px; text-transform: none; widows: 2; word-spacing: 0px; -webkit-text-stroke-width: 0px; white-space: normal; background-color: rgb(255, 255, 255); text-decoration-thickness: initial; text-decoration-style: initial; text-decoration-color: initial;&quot;&gt;示例: 输入:&amp;nbsp;&quot;aab&quot; 输出: [ [&quot;aa&quot;,&quot;b&quot;], [&quot;a&quot;,&quot;a&quot;,&quot;b&quot;] ]&lt;/p&gt;" link="&lt;h1 id=&quot;_131-分割回文串&quot; style=&quot;font-weight: 600; line-height: 1.25; font-size: 2.2rem; margin-top: -3.1rem; padding-top: 4.6rem; margin-bottom: 0px; color: rgb(44, 62, 80); font-family: -apple-system, BlinkMacSystemFont, &amp;quot;Segoe UI&amp;quot;, Roboto, Oxygen, Ubuntu, Cantarell, &amp;quot;Fira Sans&amp;quot;, &amp;quot;Droid Sans&amp;quot;, &amp;quot;Helvetica Neue&amp;quot;, sans-serif; font-style: normal; font-variant-ligatures: normal; font-variant-caps: normal; letter-spacing: normal; orphans: 2; text-align: start; text-indent: 0px; text-transform: none; widows: 2; word-spacing: 0px; -webkit-text-stroke-width: 0px; white-space: normal; background-color: rgb(255, 255, 255); text-decoration-thickness: initial; text-decoration-style: initial; text-decoration-color: initial;&quot;&gt;分割回文串&lt;/h1&gt;&lt;p style=&quot;line-height: 1.7; color: rgb(44, 62, 80); font-family: -apple-system, BlinkMacSystemFont, &amp;quot;Segoe UI&amp;quot;, Roboto, Oxygen, Ubuntu, Cantarell, &amp;quot;Fira Sans&amp;quot;, &amp;quot;Droid Sans&amp;quot;, &amp;quot;Helvetica Neue&amp;quot;, sans-serif; font-size: 16px; font-style: normal; font-variant-ligatures: normal; font-variant-caps: normal; font-weight: 400; letter-spacing: normal; orphans: 2; text-align: start; text-indent: 0px; text-transform: none; widows: 2; word-spacing: 0px; -webkit-text-stroke-width: 0px; white-space: normal; background-color: rgb(255, 255, 255); text-decoration-thickness: initial; text-decoration-style: initial; text-decoration-color: initial;&quot;&gt;&lt;a href=&quot;https://leetcode.cn/problems/palindrome-partitioning/&quot; target=&quot;_blank&quot; rel=&quot;noopener noreferrer&quot; style=&quot;font-weight: 500; text-decoration: none; color: rgb(62, 175, 124);&quot;&gt;力扣题目链接&lt;span&gt;&lt;svg xmlns=&quot;http://www.w3.org/2000/svg&quot; aria-hidden=&quot;true&quot; x=&quot;0px&quot; y=&quot;0px&quot; viewBox=&quot;0 0 100 100&quot; width=&quot;15&quot; height=&quot;15&quot; class=&quot;icon outbound&quot;&gt;&lt;path fill=&quot;currentColor&quot; d=&quot;M18.8,85.1h56l0,0c2.2,0,4-1.8,4-4v-32h-8v28h-48v-48h28v-8h-32l0,0c-2.2,0-4,1.8-4,4v56C14.8,83.3,16.6,85.1,18.8,85.1z&quot;&gt;&lt;/path&gt;&lt;polygon fill=&quot;currentColor&quot; points=&quot;45.7,48.7 51.3,54.3 77.2,28.5 77.2,37.2 85.2,37.2 85.2,14.9 62.8,14.9 62.8,22.9 71.5,22.9&quot;&gt;&lt;/polygon&gt;&lt;/svg&gt;&lt;span class=&quot;sr-only&quot; style=&quot;position: absolute; width: 1px; height: 1px; padding: 0px; margin: -1px; overflow: hidden; clip: rect(0px, 0px, 0px, 0px); white-space: nowrap; border-width: 0px;&quot;&gt;(opens new window)&lt;/span&gt;&lt;/span&gt;&lt;/a&gt;&lt;/p&gt;&lt;p style=&quot;line-height: 1.7; color: rgb(44, 62, 80); font-family: -apple-system, BlinkMacSystemFont, &amp;quot;Segoe UI&amp;quot;, Roboto, Oxygen, Ubuntu, Cantarell, &amp;quot;Fira Sans&amp;quot;, &amp;quot;Droid Sans&amp;quot;, &amp;quot;Helvetica Neue&amp;quot;, sans-serif; font-size: 16px; font-style: normal; font-variant-ligatures: normal; font-variant-caps: normal; font-weight: 400; letter-spacing: normal; orphans: 2; text-align: start; text-indent: 0px; text-transform: none; widows: 2; word-spacing: 0px; -webkit-text-stroke-width: 0px; white-space: normal; background-color: rgb(255, 255, 255); text-decoration-thickness: initial; text-decoration-style: initial; text-decoration-color: initial;&quot;&gt;给定一个字符串 s，将 s 分割成一些子串，使每个子串都是回文串。&lt;/p&gt;&lt;p style=&quot;line-height: 1.7; color: rgb(44, 62, 80); font-family: -apple-system, BlinkMacSystemFont, &amp;quot;Segoe UI&amp;quot;, Roboto, Oxygen, Ubuntu, Cantarell, &amp;quot;Fira Sans&amp;quot;, &amp;quot;Droid Sans&amp;quot;, &amp;quot;Helvetica Neue&amp;quot;, sans-serif; font-size: 16px; font-style: normal; font-variant-ligatures: normal; font-variant-caps: normal; font-weight: 400; letter-spacing: normal; orphans: 2; text-align: start; text-indent: 0px; text-transform: none; widows: 2; word-spacing: 0px; -webkit-text-stroke-width: 0px; white-space: normal; background-color: rgb(255, 255, 255); text-decoration-thickness: initial; text-decoration-style: initial; text-decoration-color: initial;&quot;&gt;返回 s 所有可能的分割方案。&lt;/p&gt;&lt;p style=&quot;line-height: 1.7; color: rgb(44, 62, 80); font-family: -apple-system, BlinkMacSystemFont, &amp;quot;Segoe UI&amp;quot;, Roboto, Oxygen, Ubuntu, Cantarell, &amp;quot;Fira Sans&amp;quot;, &amp;quot;Droid Sans&amp;quot;, &amp;quot;Helvetica Neue&amp;quot;, sans-serif; font-size: 16px; font-style: normal; font-variant-ligatures: normal; font-variant-caps: normal; font-weight: 400; letter-spacing: normal; orphans: 2; text-align: start; text-indent: 0px; text-transform: none; widows: 2; word-spacing: 0px; -webkit-text-stroke-width: 0px; white-space: normal; background-color: rgb(255, 255, 255); text-decoration-thickness: initial; text-decoration-style: initial; text-decoration-color: initial;&quot;&gt;示例: 输入:&amp;nbsp;&quot;aab&quot; 输出: [ [&quot;aa&quot;,&quot;b&quot;], [&quot;a&quot;,&quot;a&quot;,&quot;b&quot;] ]&lt;/p&gt;" id="CqxgGtcZtNKs-9hgngda-21">
          <mxCell style="text;whiteSpace=wrap;html=1;" vertex="1" parent="1">
            <mxGeometry x="2872.9979957580567" y="-496.99946823120115" width="503" height="279" as="geometry" />
          </mxCell>
        </UserObject>
        <mxCell id="CqxgGtcZtNKs-9hgngda-22" value="&lt;pre class=&quot;language-cpp&quot; style=&quot;background: transparent; font-family: Consolas, Monaco, &amp;quot;Andale Mono&amp;quot;, &amp;quot;Ubuntu Mono&amp;quot;, monospace; font-size: 16px; text-align: left; white-space: pre; word-spacing: 0px; word-break: normal; overflow-wrap: normal; line-height: 1.4; tab-size: 4; hyphens: none; padding: 1.25rem 1.5rem 1.25rem 4.5rem; margin: 0.85rem 0px; overflow: auto; border-radius: 6px; position: relative; z-index: 1; vertical-align: middle; font-style: normal; font-variant-ligatures: normal; font-variant-caps: normal; letter-spacing: normal; orphans: 2; text-indent: 0px; text-transform: none; widows: 2; -webkit-text-stroke-width: 0px; text-decoration-thickness: initial; text-decoration-style: initial; text-decoration-color: initial;&quot;&gt;&lt;code style=&quot;font-family: source-code-pro, Menlo, Monaco, Consolas, &amp;quot;Courier New&amp;quot;, monospace; padding: 0px; margin: 0px; font-size: 0.85em; background-color: transparent; border-radius: 0px;&quot;&gt;&lt;b&gt;&lt;span class=&quot;token keyword&quot; style=&quot;&quot;&gt;class&lt;/span&gt; &lt;span class=&quot;token class-name&quot; style=&quot;&quot;&gt;Solution&lt;/span&gt; &lt;span class=&quot;token punctuation&quot; style=&quot;&quot;&gt;{&lt;/span&gt;&lt;br&gt;&lt;span class=&quot;token keyword&quot; style=&quot;&quot;&gt;private&lt;/span&gt;&lt;span class=&quot;token operator&quot; style=&quot;&quot;&gt;:&lt;/span&gt;&lt;br&gt;    vector&lt;span class=&quot;token operator&quot; style=&quot;&quot;&gt;&amp;lt;&lt;/span&gt;vector&lt;span class=&quot;token operator&quot; style=&quot;&quot;&gt;&amp;lt;&lt;/span&gt;string&lt;span class=&quot;token operator&quot; style=&quot;&quot;&gt;&amp;gt;&amp;gt;&lt;/span&gt; result&lt;span class=&quot;token punctuation&quot; style=&quot;&quot;&gt;;&lt;/span&gt;&lt;br&gt;    vector&lt;span class=&quot;token operator&quot; style=&quot;&quot;&gt;&amp;lt;&lt;/span&gt;string&lt;span class=&quot;token operator&quot; style=&quot;&quot;&gt;&amp;gt;&lt;/span&gt; path&lt;span class=&quot;token punctuation&quot; style=&quot;&quot;&gt;;&lt;/span&gt; &lt;span class=&quot;token comment&quot; style=&quot;&quot;&gt;// 放已经回文的子串&lt;/span&gt;&lt;br&gt;    &lt;span class=&quot;token keyword&quot; style=&quot;&quot;&gt;void&lt;/span&gt; &lt;span class=&quot;token function&quot; style=&quot;&quot;&gt;backtracking&lt;/span&gt; &lt;span class=&quot;token punctuation&quot; style=&quot;&quot;&gt;(&lt;/span&gt;&lt;span class=&quot;token keyword&quot; style=&quot;&quot;&gt;const&lt;/span&gt; string&lt;span class=&quot;token operator&quot; style=&quot;&quot;&gt;&amp;amp;&lt;/span&gt; s&lt;span class=&quot;token punctuation&quot; style=&quot;&quot;&gt;,&lt;/span&gt; &lt;span class=&quot;token keyword&quot; style=&quot;&quot;&gt;int&lt;/span&gt; startIndex&lt;span class=&quot;token punctuation&quot; style=&quot;&quot;&gt;)&lt;/span&gt; &lt;span class=&quot;token punctuation&quot; style=&quot;&quot;&gt;{&lt;/span&gt;&lt;br&gt;        &lt;span class=&quot;token comment&quot; style=&quot;&quot;&gt;// 如果起始位置已经大于s的大小，说明已经找到了一组分割方案了&lt;/span&gt;&lt;br&gt;        &lt;span class=&quot;token keyword&quot; style=&quot;&quot;&gt;if&lt;/span&gt; &lt;span class=&quot;token punctuation&quot; style=&quot;&quot;&gt;(&lt;/span&gt;startIndex &lt;span class=&quot;token operator&quot; style=&quot;&quot;&gt;&amp;gt;=&lt;/span&gt; s&lt;span class=&quot;token punctuation&quot; style=&quot;&quot;&gt;.&lt;/span&gt;&lt;span class=&quot;token function&quot; style=&quot;&quot;&gt;size&lt;/span&gt;&lt;span class=&quot;token punctuation&quot; style=&quot;&quot;&gt;(&lt;/span&gt;&lt;span class=&quot;token punctuation&quot; style=&quot;&quot;&gt;)&lt;/span&gt;&lt;span class=&quot;token punctuation&quot; style=&quot;&quot;&gt;)&lt;/span&gt; &lt;span class=&quot;token punctuation&quot; style=&quot;&quot;&gt;{&lt;/span&gt;&lt;br&gt;            result&lt;span class=&quot;token punctuation&quot; style=&quot;&quot;&gt;.&lt;/span&gt;&lt;span class=&quot;token function&quot; style=&quot;&quot;&gt;push_back&lt;/span&gt;&lt;span class=&quot;token punctuation&quot; style=&quot;&quot;&gt;(&lt;/span&gt;path&lt;span class=&quot;token punctuation&quot; style=&quot;&quot;&gt;)&lt;/span&gt;&lt;span class=&quot;token punctuation&quot; style=&quot;&quot;&gt;;&lt;/span&gt;&lt;br&gt;            &lt;span class=&quot;token keyword&quot; style=&quot;&quot;&gt;return&lt;/span&gt;&lt;span class=&quot;token punctuation&quot; style=&quot;&quot;&gt;;&lt;/span&gt;&lt;br&gt;        &lt;span class=&quot;token punctuation&quot; style=&quot;&quot;&gt;}&lt;/span&gt;&lt;br&gt;        &lt;span class=&quot;token keyword&quot; style=&quot;&quot;&gt;for&lt;/span&gt; &lt;span class=&quot;token punctuation&quot; style=&quot;&quot;&gt;(&lt;/span&gt;&lt;span class=&quot;token keyword&quot; style=&quot;&quot;&gt;int&lt;/span&gt; i &lt;span class=&quot;token operator&quot; style=&quot;&quot;&gt;=&lt;/span&gt; startIndex&lt;span class=&quot;token punctuation&quot; style=&quot;&quot;&gt;;&lt;/span&gt; i &lt;span class=&quot;token operator&quot; style=&quot;&quot;&gt;&amp;lt;&lt;/span&gt; s&lt;span class=&quot;token punctuation&quot; style=&quot;&quot;&gt;.&lt;/span&gt;&lt;span class=&quot;token function&quot; style=&quot;&quot;&gt;size&lt;/span&gt;&lt;span class=&quot;token punctuation&quot; style=&quot;&quot;&gt;(&lt;/span&gt;&lt;span class=&quot;token punctuation&quot; style=&quot;&quot;&gt;)&lt;/span&gt;&lt;span class=&quot;token punctuation&quot; style=&quot;&quot;&gt;;&lt;/span&gt; i&lt;span class=&quot;token operator&quot; style=&quot;&quot;&gt;++&lt;/span&gt;&lt;span class=&quot;token punctuation&quot; style=&quot;&quot;&gt;)&lt;/span&gt; &lt;span class=&quot;token punctuation&quot; style=&quot;&quot;&gt;{&lt;/span&gt;&lt;br&gt;            &lt;span class=&quot;token keyword&quot; style=&quot;&quot;&gt;if&lt;/span&gt; &lt;span class=&quot;token punctuation&quot; style=&quot;&quot;&gt;(&lt;/span&gt;&lt;span class=&quot;token function&quot; style=&quot;&quot;&gt;isPalindrome&lt;/span&gt;&lt;span class=&quot;token punctuation&quot; style=&quot;&quot;&gt;(&lt;/span&gt;s&lt;span class=&quot;token punctuation&quot; style=&quot;&quot;&gt;,&lt;/span&gt; startIndex&lt;span class=&quot;token punctuation&quot; style=&quot;&quot;&gt;,&lt;/span&gt; i&lt;span class=&quot;token punctuation&quot; style=&quot;&quot;&gt;)&lt;/span&gt;&lt;span class=&quot;token punctuation&quot; style=&quot;&quot;&gt;)&lt;/span&gt; &lt;span class=&quot;token punctuation&quot; style=&quot;&quot;&gt;{&lt;/span&gt;   &lt;span class=&quot;token comment&quot; style=&quot;&quot;&gt;// 是回文子串&lt;/span&gt;&lt;br&gt;                &lt;span class=&quot;token comment&quot; style=&quot;&quot;&gt;// 获取[startIndex,i]在s中的子串&lt;/span&gt;&lt;br&gt;                string str &lt;span class=&quot;token operator&quot; style=&quot;&quot;&gt;=&lt;/span&gt; s&lt;span class=&quot;token punctuation&quot; style=&quot;&quot;&gt;.&lt;/span&gt;&lt;span class=&quot;token function&quot; style=&quot;&quot;&gt;substr&lt;/span&gt;&lt;span class=&quot;token punctuation&quot; style=&quot;&quot;&gt;(&lt;/span&gt;startIndex&lt;span class=&quot;token punctuation&quot; style=&quot;&quot;&gt;,&lt;/span&gt; i &lt;span class=&quot;token operator&quot; style=&quot;&quot;&gt;-&lt;/span&gt; startIndex &lt;span class=&quot;token operator&quot; style=&quot;&quot;&gt;+&lt;/span&gt; &lt;span class=&quot;token number&quot; style=&quot;&quot;&gt;1&lt;/span&gt;&lt;span class=&quot;token punctuation&quot; style=&quot;&quot;&gt;)&lt;/span&gt;&lt;span class=&quot;token punctuation&quot; style=&quot;&quot;&gt;;&lt;/span&gt;&lt;br&gt;                path&lt;span class=&quot;token punctuation&quot; style=&quot;&quot;&gt;.&lt;/span&gt;&lt;span class=&quot;token function&quot; style=&quot;&quot;&gt;push_back&lt;/span&gt;&lt;span class=&quot;token punctuation&quot; style=&quot;&quot;&gt;(&lt;/span&gt;str&lt;span class=&quot;token punctuation&quot; style=&quot;&quot;&gt;)&lt;/span&gt;&lt;span class=&quot;token punctuation&quot; style=&quot;&quot;&gt;;&lt;/span&gt;&lt;br&gt;            &lt;span class=&quot;token punctuation&quot; style=&quot;&quot;&gt;}&lt;/span&gt; &lt;span class=&quot;token keyword&quot; style=&quot;&quot;&gt;else&lt;/span&gt; &lt;span class=&quot;token punctuation&quot; style=&quot;&quot;&gt;{&lt;/span&gt;                                &lt;span class=&quot;token comment&quot; style=&quot;&quot;&gt;// 不是回文，跳过&lt;/span&gt;&lt;br&gt;                &lt;span class=&quot;token keyword&quot; style=&quot;&quot;&gt;continue&lt;/span&gt;&lt;span class=&quot;token punctuation&quot; style=&quot;&quot;&gt;;&lt;/span&gt;&lt;br&gt;            &lt;span class=&quot;token punctuation&quot; style=&quot;&quot;&gt;}&lt;/span&gt;&lt;br&gt;            &lt;span class=&quot;token function&quot; style=&quot;&quot;&gt;backtracking&lt;/span&gt;&lt;span class=&quot;token punctuation&quot; style=&quot;&quot;&gt;(&lt;/span&gt;s&lt;span class=&quot;token punctuation&quot; style=&quot;&quot;&gt;,&lt;/span&gt; i &lt;span class=&quot;token operator&quot; style=&quot;&quot;&gt;+&lt;/span&gt; &lt;span class=&quot;token number&quot; style=&quot;&quot;&gt;1&lt;/span&gt;&lt;span class=&quot;token punctuation&quot; style=&quot;&quot;&gt;)&lt;/span&gt;&lt;span class=&quot;token punctuation&quot; style=&quot;&quot;&gt;;&lt;/span&gt; &lt;span class=&quot;token comment&quot; style=&quot;&quot;&gt;// 寻找i+1为起始位置的子串&lt;/span&gt;&lt;br&gt;            path&lt;span class=&quot;token punctuation&quot; style=&quot;&quot;&gt;.&lt;/span&gt;&lt;span class=&quot;token function&quot; style=&quot;&quot;&gt;pop_back&lt;/span&gt;&lt;span class=&quot;token punctuation&quot; style=&quot;&quot;&gt;(&lt;/span&gt;&lt;span class=&quot;token punctuation&quot; style=&quot;&quot;&gt;)&lt;/span&gt;&lt;span class=&quot;token punctuation&quot; style=&quot;&quot;&gt;;&lt;/span&gt; &lt;span class=&quot;token comment&quot; style=&quot;&quot;&gt;// 回溯过程，弹出本次已经添加的子串&lt;/span&gt;&lt;br&gt;        &lt;span class=&quot;token punctuation&quot; style=&quot;&quot;&gt;}&lt;/span&gt;&lt;br&gt;    &lt;span class=&quot;token punctuation&quot; style=&quot;&quot;&gt;}&lt;/span&gt;&lt;br&gt;    &lt;span class=&quot;token keyword&quot; style=&quot;&quot;&gt;bool&lt;/span&gt; &lt;span class=&quot;token function&quot; style=&quot;&quot;&gt;isPalindrome&lt;/span&gt;&lt;span class=&quot;token punctuation&quot; style=&quot;&quot;&gt;(&lt;/span&gt;&lt;span class=&quot;token keyword&quot; style=&quot;&quot;&gt;const&lt;/span&gt; string&lt;span class=&quot;token operator&quot; style=&quot;&quot;&gt;&amp;amp;&lt;/span&gt; s&lt;span class=&quot;token punctuation&quot; style=&quot;&quot;&gt;,&lt;/span&gt; &lt;span class=&quot;token keyword&quot; style=&quot;&quot;&gt;int&lt;/span&gt; start&lt;span class=&quot;token punctuation&quot; style=&quot;&quot;&gt;,&lt;/span&gt; &lt;span class=&quot;token keyword&quot; style=&quot;&quot;&gt;int&lt;/span&gt; end&lt;span class=&quot;token punctuation&quot; style=&quot;&quot;&gt;)&lt;/span&gt; &lt;span class=&quot;token punctuation&quot; style=&quot;&quot;&gt;{&lt;/span&gt;&lt;br&gt;        &lt;span class=&quot;token keyword&quot; style=&quot;&quot;&gt;for&lt;/span&gt; &lt;span class=&quot;token punctuation&quot; style=&quot;&quot;&gt;(&lt;/span&gt;&lt;span class=&quot;token keyword&quot; style=&quot;&quot;&gt;int&lt;/span&gt; i &lt;span class=&quot;token operator&quot; style=&quot;&quot;&gt;=&lt;/span&gt; start&lt;span class=&quot;token punctuation&quot; style=&quot;&quot;&gt;,&lt;/span&gt; j &lt;span class=&quot;token operator&quot; style=&quot;&quot;&gt;=&lt;/span&gt; end&lt;span class=&quot;token punctuation&quot; style=&quot;&quot;&gt;;&lt;/span&gt; i &lt;span class=&quot;token operator&quot; style=&quot;&quot;&gt;&amp;lt;&lt;/span&gt; j&lt;span class=&quot;token punctuation&quot; style=&quot;&quot;&gt;;&lt;/span&gt; i&lt;span class=&quot;token operator&quot; style=&quot;&quot;&gt;++&lt;/span&gt;&lt;span class=&quot;token punctuation&quot; style=&quot;&quot;&gt;,&lt;/span&gt; j&lt;span class=&quot;token operator&quot; style=&quot;&quot;&gt;--&lt;/span&gt;&lt;span class=&quot;token punctuation&quot; style=&quot;&quot;&gt;)&lt;/span&gt; &lt;span class=&quot;token punctuation&quot; style=&quot;&quot;&gt;{&lt;/span&gt;&lt;br&gt;            &lt;span class=&quot;token keyword&quot; style=&quot;&quot;&gt;if&lt;/span&gt; &lt;span class=&quot;token punctuation&quot; style=&quot;&quot;&gt;(&lt;/span&gt;s&lt;span class=&quot;token punctuation&quot; style=&quot;&quot;&gt;[&lt;/span&gt;i&lt;span class=&quot;token punctuation&quot; style=&quot;&quot;&gt;]&lt;/span&gt; &lt;span class=&quot;token operator&quot; style=&quot;&quot;&gt;!=&lt;/span&gt; s&lt;span class=&quot;token punctuation&quot; style=&quot;&quot;&gt;[&lt;/span&gt;j&lt;span class=&quot;token punctuation&quot; style=&quot;&quot;&gt;]&lt;/span&gt;&lt;span class=&quot;token punctuation&quot; style=&quot;&quot;&gt;)&lt;/span&gt; &lt;span class=&quot;token punctuation&quot; style=&quot;&quot;&gt;{&lt;/span&gt;&lt;br&gt;                &lt;span class=&quot;token keyword&quot; style=&quot;&quot;&gt;return&lt;/span&gt; &lt;span class=&quot;token boolean&quot; style=&quot;&quot;&gt;false&lt;/span&gt;&lt;span class=&quot;token punctuation&quot; style=&quot;&quot;&gt;;&lt;/span&gt;&lt;br&gt;            &lt;span class=&quot;token punctuation&quot; style=&quot;&quot;&gt;}&lt;/span&gt;&lt;br&gt;        &lt;span class=&quot;token punctuation&quot; style=&quot;&quot;&gt;}&lt;/span&gt;&lt;br&gt;        &lt;span class=&quot;token keyword&quot; style=&quot;&quot;&gt;return&lt;/span&gt; &lt;span class=&quot;token boolean&quot; style=&quot;&quot;&gt;true&lt;/span&gt;&lt;span class=&quot;token punctuation&quot; style=&quot;&quot;&gt;;&lt;/span&gt;&lt;br&gt;    &lt;span class=&quot;token punctuation&quot; style=&quot;&quot;&gt;}&lt;/span&gt;&lt;br&gt;&lt;span class=&quot;token keyword&quot; style=&quot;&quot;&gt;public&lt;/span&gt;&lt;span class=&quot;token operator&quot; style=&quot;&quot;&gt;:&lt;/span&gt;&lt;br&gt;    vector&lt;span class=&quot;token operator&quot; style=&quot;&quot;&gt;&amp;lt;&lt;/span&gt;vector&lt;span class=&quot;token operator&quot; style=&quot;&quot;&gt;&amp;lt;&lt;/span&gt;string&lt;span class=&quot;token operator&quot; style=&quot;&quot;&gt;&amp;gt;&amp;gt;&lt;/span&gt; &lt;span class=&quot;token function&quot; style=&quot;&quot;&gt;partition&lt;/span&gt;&lt;span class=&quot;token punctuation&quot; style=&quot;&quot;&gt;(&lt;/span&gt;string s&lt;span class=&quot;token punctuation&quot; style=&quot;&quot;&gt;)&lt;/span&gt; &lt;span class=&quot;token punctuation&quot; style=&quot;&quot;&gt;{&lt;/span&gt;&lt;br&gt;        result&lt;span class=&quot;token punctuation&quot; style=&quot;&quot;&gt;.&lt;/span&gt;&lt;span class=&quot;token function&quot; style=&quot;&quot;&gt;clear&lt;/span&gt;&lt;span class=&quot;token punctuation&quot; style=&quot;&quot;&gt;(&lt;/span&gt;&lt;span class=&quot;token punctuation&quot; style=&quot;&quot;&gt;)&lt;/span&gt;&lt;span class=&quot;token punctuation&quot; style=&quot;&quot;&gt;;&lt;/span&gt;&lt;br&gt;        path&lt;span class=&quot;token punctuation&quot; style=&quot;&quot;&gt;.&lt;/span&gt;&lt;span class=&quot;token function&quot; style=&quot;&quot;&gt;clear&lt;/span&gt;&lt;span class=&quot;token punctuation&quot; style=&quot;&quot;&gt;(&lt;/span&gt;&lt;span class=&quot;token punctuation&quot; style=&quot;&quot;&gt;)&lt;/span&gt;&lt;span class=&quot;token punctuation&quot; style=&quot;&quot;&gt;;&lt;/span&gt;&lt;br&gt;        &lt;span class=&quot;token function&quot; style=&quot;&quot;&gt;backtracking&lt;/span&gt;&lt;span class=&quot;token punctuation&quot; style=&quot;&quot;&gt;(&lt;/span&gt;s&lt;span class=&quot;token punctuation&quot; style=&quot;&quot;&gt;,&lt;/span&gt; &lt;span class=&quot;token number&quot; style=&quot;&quot;&gt;0&lt;/span&gt;&lt;span class=&quot;token punctuation&quot; style=&quot;&quot;&gt;)&lt;/span&gt;&lt;span class=&quot;token punctuation&quot; style=&quot;&quot;&gt;;&lt;/span&gt;&lt;br&gt;        &lt;span class=&quot;token keyword&quot; style=&quot;&quot;&gt;return&lt;/span&gt; result&lt;span class=&quot;token punctuation&quot; style=&quot;&quot;&gt;;&lt;/span&gt;&lt;br&gt;    &lt;span class=&quot;token punctuation&quot; style=&quot;&quot;&gt;}&lt;/span&gt;&lt;br&gt;&lt;span class=&quot;token punctuation&quot; style=&quot;&quot;&gt;}&lt;/span&gt;&lt;span class=&quot;token punctuation&quot; style=&quot;&quot;&gt;;&lt;/span&gt;&lt;/b&gt;&lt;/code&gt;&lt;/pre&gt;" style="text;whiteSpace=wrap;html=1;" vertex="1" parent="1">
          <mxGeometry x="2802.000881347656" y="-253.9982373046875" width="550" height="950" as="geometry" />
        </mxCell>
        <mxCell id="CqxgGtcZtNKs-9hgngda-24" value="[1,2]&amp;nbsp; [2,1]属于是一个，不能写两次" style="text;html=1;align=center;verticalAlign=middle;resizable=0;points=[];autosize=1;strokeColor=none;fillColor=none;" vertex="1" parent="1">
          <mxGeometry x="1464" y="-402" width="203" height="26" as="geometry" />
        </mxCell>
        <UserObject label="&lt;h1 id=&quot;_90-子集ii&quot; style=&quot;font-weight: 600; line-height: 1.25; font-size: 2.2rem; margin-top: -3.1rem; padding-top: 4.6rem; margin-bottom: 0px; color: rgb(44, 62, 80); font-family: -apple-system, BlinkMacSystemFont, &amp;quot;Segoe UI&amp;quot;, Roboto, Oxygen, Ubuntu, Cantarell, &amp;quot;Fira Sans&amp;quot;, &amp;quot;Droid Sans&amp;quot;, &amp;quot;Helvetica Neue&amp;quot;, sans-serif; font-style: normal; font-variant-ligatures: normal; font-variant-caps: normal; letter-spacing: normal; orphans: 2; text-align: start; text-indent: 0px; text-transform: none; widows: 2; word-spacing: 0px; -webkit-text-stroke-width: 0px; white-space: normal; background-color: rgb(255, 255, 255); text-decoration-thickness: initial; text-decoration-style: initial; text-decoration-color: initial;&quot;&gt;子集II&lt;/h1&gt;&lt;p style=&quot;line-height: 1.7; color: rgb(44, 62, 80); font-family: -apple-system, BlinkMacSystemFont, &amp;quot;Segoe UI&amp;quot;, Roboto, Oxygen, Ubuntu, Cantarell, &amp;quot;Fira Sans&amp;quot;, &amp;quot;Droid Sans&amp;quot;, &amp;quot;Helvetica Neue&amp;quot;, sans-serif; font-size: 16px; font-style: normal; font-variant-ligatures: normal; font-variant-caps: normal; font-weight: 400; letter-spacing: normal; orphans: 2; text-align: start; text-indent: 0px; text-transform: none; widows: 2; word-spacing: 0px; -webkit-text-stroke-width: 0px; white-space: normal; background-color: rgb(255, 255, 255); text-decoration-thickness: initial; text-decoration-style: initial; text-decoration-color: initial;&quot;&gt;&lt;a href=&quot;https://leetcode.cn/problems/subsets-ii/&quot; target=&quot;_blank&quot; rel=&quot;noopener noreferrer&quot; style=&quot;font-weight: 500; text-decoration: none; color: rgb(62, 175, 124);&quot;&gt;力扣题目链接&lt;span&gt;&lt;svg xmlns=&quot;http://www.w3.org/2000/svg&quot; aria-hidden=&quot;true&quot; x=&quot;0px&quot; y=&quot;0px&quot; viewBox=&quot;0 0 100 100&quot; width=&quot;15&quot; height=&quot;15&quot; class=&quot;icon outbound&quot;&gt;&lt;path fill=&quot;currentColor&quot; d=&quot;M18.8,85.1h56l0,0c2.2,0,4-1.8,4-4v-32h-8v28h-48v-48h28v-8h-32l0,0c-2.2,0-4,1.8-4,4v56C14.8,83.3,16.6,85.1,18.8,85.1z&quot;&gt;&lt;/path&gt;&lt;polygon fill=&quot;currentColor&quot; points=&quot;45.7,48.7 51.3,54.3 77.2,28.5 77.2,37.2 85.2,37.2 85.2,14.9 62.8,14.9 62.8,22.9 71.5,22.9&quot;&gt;&lt;/polygon&gt;&lt;/svg&gt;&lt;span class=&quot;sr-only&quot; style=&quot;position: absolute; width: 1px; height: 1px; padding: 0px; margin: -1px; overflow: hidden; clip: rect(0px, 0px, 0px, 0px); white-space: nowrap; border-width: 0px;&quot;&gt;(opens new window)&lt;/span&gt;&lt;/span&gt;&lt;/a&gt;&lt;/p&gt;&lt;p style=&quot;line-height: 1.7; color: rgb(44, 62, 80); font-family: -apple-system, BlinkMacSystemFont, &amp;quot;Segoe UI&amp;quot;, Roboto, Oxygen, Ubuntu, Cantarell, &amp;quot;Fira Sans&amp;quot;, &amp;quot;Droid Sans&amp;quot;, &amp;quot;Helvetica Neue&amp;quot;, sans-serif; font-size: 16px; font-style: normal; font-variant-ligatures: normal; font-variant-caps: normal; font-weight: 400; letter-spacing: normal; orphans: 2; text-align: start; text-indent: 0px; text-transform: none; widows: 2; word-spacing: 0px; -webkit-text-stroke-width: 0px; white-space: normal; background-color: rgb(255, 255, 255); text-decoration-thickness: initial; text-decoration-style: initial; text-decoration-color: initial;&quot;&gt;给定一个可能包含重复元素的整数数组 nums，返回该数组所有可能的子集（幂集）。&lt;/p&gt;&lt;p style=&quot;line-height: 1.7; color: rgb(44, 62, 80); font-family: -apple-system, BlinkMacSystemFont, &amp;quot;Segoe UI&amp;quot;, Roboto, Oxygen, Ubuntu, Cantarell, &amp;quot;Fira Sans&amp;quot;, &amp;quot;Droid Sans&amp;quot;, &amp;quot;Helvetica Neue&amp;quot;, sans-serif; font-size: 16px; font-style: normal; font-variant-ligatures: normal; font-variant-caps: normal; font-weight: 400; letter-spacing: normal; orphans: 2; text-align: start; text-indent: 0px; text-transform: none; widows: 2; word-spacing: 0px; -webkit-text-stroke-width: 0px; white-space: normal; background-color: rgb(255, 255, 255); text-decoration-thickness: initial; text-decoration-style: initial; text-decoration-color: initial;&quot;&gt;说明：解集不能包含重复的子集。&lt;/p&gt;&lt;p style=&quot;line-height: 1.7; color: rgb(44, 62, 80); font-family: -apple-system, BlinkMacSystemFont, &amp;quot;Segoe UI&amp;quot;, Roboto, Oxygen, Ubuntu, Cantarell, &amp;quot;Fira Sans&amp;quot;, &amp;quot;Droid Sans&amp;quot;, &amp;quot;Helvetica Neue&amp;quot;, sans-serif; font-size: 16px; font-style: normal; font-variant-ligatures: normal; font-variant-caps: normal; font-weight: 400; letter-spacing: normal; orphans: 2; text-align: start; text-indent: 0px; text-transform: none; widows: 2; word-spacing: 0px; -webkit-text-stroke-width: 0px; white-space: normal; background-color: rgb(255, 255, 255); text-decoration-thickness: initial; text-decoration-style: initial; text-decoration-color: initial;&quot;&gt;示例:&lt;/p&gt;&lt;ul style=&quot;padding-left: 1.2em; line-height: 1.7; color: rgb(44, 62, 80); font-family: -apple-system, BlinkMacSystemFont, &amp;quot;Segoe UI&amp;quot;, Roboto, Oxygen, Ubuntu, Cantarell, &amp;quot;Fira Sans&amp;quot;, &amp;quot;Droid Sans&amp;quot;, &amp;quot;Helvetica Neue&amp;quot;, sans-serif; font-size: 16px; font-style: normal; font-variant-ligatures: normal; font-variant-caps: normal; font-weight: 400; letter-spacing: normal; orphans: 2; text-align: start; text-indent: 0px; text-transform: none; widows: 2; word-spacing: 0px; -webkit-text-stroke-width: 0px; white-space: normal; background-color: rgb(255, 255, 255); text-decoration-thickness: initial; text-decoration-style: initial; text-decoration-color: initial;&quot;&gt;&lt;li&gt;输入: [1,2,2]&lt;/li&gt;&lt;li&gt;输出: [ [2], [1], [1,2,2], [2,2], [1,2], [] ]&lt;/li&gt;&lt;/ul&gt;" link="&lt;h1 id=&quot;_90-子集ii&quot; style=&quot;font-weight: 600; line-height: 1.25; font-size: 2.2rem; margin-top: -3.1rem; padding-top: 4.6rem; margin-bottom: 0px; color: rgb(44, 62, 80); font-family: -apple-system, BlinkMacSystemFont, &amp;quot;Segoe UI&amp;quot;, Roboto, Oxygen, Ubuntu, Cantarell, &amp;quot;Fira Sans&amp;quot;, &amp;quot;Droid Sans&amp;quot;, &amp;quot;Helvetica Neue&amp;quot;, sans-serif; font-style: normal; font-variant-ligatures: normal; font-variant-caps: normal; letter-spacing: normal; orphans: 2; text-align: start; text-indent: 0px; text-transform: none; widows: 2; word-spacing: 0px; -webkit-text-stroke-width: 0px; white-space: normal; background-color: rgb(255, 255, 255); text-decoration-thickness: initial; text-decoration-style: initial; text-decoration-color: initial;&quot;&gt;子集II&lt;/h1&gt;&lt;p style=&quot;line-height: 1.7; color: rgb(44, 62, 80); font-family: -apple-system, BlinkMacSystemFont, &amp;quot;Segoe UI&amp;quot;, Roboto, Oxygen, Ubuntu, Cantarell, &amp;quot;Fira Sans&amp;quot;, &amp;quot;Droid Sans&amp;quot;, &amp;quot;Helvetica Neue&amp;quot;, sans-serif; font-size: 16px; font-style: normal; font-variant-ligatures: normal; font-variant-caps: normal; font-weight: 400; letter-spacing: normal; orphans: 2; text-align: start; text-indent: 0px; text-transform: none; widows: 2; word-spacing: 0px; -webkit-text-stroke-width: 0px; white-space: normal; background-color: rgb(255, 255, 255); text-decoration-thickness: initial; text-decoration-style: initial; text-decoration-color: initial;&quot;&gt;&lt;a href=&quot;https://leetcode.cn/problems/subsets-ii/&quot; target=&quot;_blank&quot; rel=&quot;noopener noreferrer&quot; style=&quot;font-weight: 500; text-decoration: none; color: rgb(62, 175, 124);&quot;&gt;力扣题目链接&lt;span&gt;&lt;svg xmlns=&quot;http://www.w3.org/2000/svg&quot; aria-hidden=&quot;true&quot; x=&quot;0px&quot; y=&quot;0px&quot; viewBox=&quot;0 0 100 100&quot; width=&quot;15&quot; height=&quot;15&quot; class=&quot;icon outbound&quot;&gt;&lt;path fill=&quot;currentColor&quot; d=&quot;M18.8,85.1h56l0,0c2.2,0,4-1.8,4-4v-32h-8v28h-48v-48h28v-8h-32l0,0c-2.2,0-4,1.8-4,4v56C14.8,83.3,16.6,85.1,18.8,85.1z&quot;&gt;&lt;/path&gt;&lt;polygon fill=&quot;currentColor&quot; points=&quot;45.7,48.7 51.3,54.3 77.2,28.5 77.2,37.2 85.2,37.2 85.2,14.9 62.8,14.9 62.8,22.9 71.5,22.9&quot;&gt;&lt;/polygon&gt;&lt;/svg&gt;&lt;span class=&quot;sr-only&quot; style=&quot;position: absolute; width: 1px; height: 1px; padding: 0px; margin: -1px; overflow: hidden; clip: rect(0px, 0px, 0px, 0px); white-space: nowrap; border-width: 0px;&quot;&gt;(opens new window)&lt;/span&gt;&lt;/span&gt;&lt;/a&gt;&lt;/p&gt;&lt;p style=&quot;line-height: 1.7; color: rgb(44, 62, 80); font-family: -apple-system, BlinkMacSystemFont, &amp;quot;Segoe UI&amp;quot;, Roboto, Oxygen, Ubuntu, Cantarell, &amp;quot;Fira Sans&amp;quot;, &amp;quot;Droid Sans&amp;quot;, &amp;quot;Helvetica Neue&amp;quot;, sans-serif; font-size: 16px; font-style: normal; font-variant-ligatures: normal; font-variant-caps: normal; font-weight: 400; letter-spacing: normal; orphans: 2; text-align: start; text-indent: 0px; text-transform: none; widows: 2; word-spacing: 0px; -webkit-text-stroke-width: 0px; white-space: normal; background-color: rgb(255, 255, 255); text-decoration-thickness: initial; text-decoration-style: initial; text-decoration-color: initial;&quot;&gt;给定一个可能包含重复元素的整数数组 nums，返回该数组所有可能的子集（幂集）。&lt;/p&gt;&lt;p style=&quot;line-height: 1.7; color: rgb(44, 62, 80); font-family: -apple-system, BlinkMacSystemFont, &amp;quot;Segoe UI&amp;quot;, Roboto, Oxygen, Ubuntu, Cantarell, &amp;quot;Fira Sans&amp;quot;, &amp;quot;Droid Sans&amp;quot;, &amp;quot;Helvetica Neue&amp;quot;, sans-serif; font-size: 16px; font-style: normal; font-variant-ligatures: normal; font-variant-caps: normal; font-weight: 400; letter-spacing: normal; orphans: 2; text-align: start; text-indent: 0px; text-transform: none; widows: 2; word-spacing: 0px; -webkit-text-stroke-width: 0px; white-space: normal; background-color: rgb(255, 255, 255); text-decoration-thickness: initial; text-decoration-style: initial; text-decoration-color: initial;&quot;&gt;说明：解集不能包含重复的子集。&lt;/p&gt;&lt;p style=&quot;line-height: 1.7; color: rgb(44, 62, 80); font-family: -apple-system, BlinkMacSystemFont, &amp;quot;Segoe UI&amp;quot;, Roboto, Oxygen, Ubuntu, Cantarell, &amp;quot;Fira Sans&amp;quot;, &amp;quot;Droid Sans&amp;quot;, &amp;quot;Helvetica Neue&amp;quot;, sans-serif; font-size: 16px; font-style: normal; font-variant-ligatures: normal; font-variant-caps: normal; font-weight: 400; letter-spacing: normal; orphans: 2; text-align: start; text-indent: 0px; text-transform: none; widows: 2; word-spacing: 0px; -webkit-text-stroke-width: 0px; white-space: normal; background-color: rgb(255, 255, 255); text-decoration-thickness: initial; text-decoration-style: initial; text-decoration-color: initial;&quot;&gt;示例:&lt;/p&gt;&lt;ul style=&quot;padding-left: 1.2em; line-height: 1.7; color: rgb(44, 62, 80); font-family: -apple-system, BlinkMacSystemFont, &amp;quot;Segoe UI&amp;quot;, Roboto, Oxygen, Ubuntu, Cantarell, &amp;quot;Fira Sans&amp;quot;, &amp;quot;Droid Sans&amp;quot;, &amp;quot;Helvetica Neue&amp;quot;, sans-serif; font-size: 16px; font-style: normal; font-variant-ligatures: normal; font-variant-caps: normal; font-weight: 400; letter-spacing: normal; orphans: 2; text-align: start; text-indent: 0px; text-transform: none; widows: 2; word-spacing: 0px; -webkit-text-stroke-width: 0px; white-space: normal; background-color: rgb(255, 255, 255); text-decoration-thickness: initial; text-decoration-style: initial; text-decoration-color: initial;&quot;&gt;&lt;li&gt;输入: [1,2,2]&lt;/li&gt;&lt;li&gt;输出: [ [2], [1], [1,2,2], [2,2], [1,2], [] ]&lt;/li&gt;&lt;/ul&gt;" id="CqxgGtcZtNKs-9hgngda-25">
          <mxCell style="text;whiteSpace=wrap;html=1;" vertex="1" parent="1">
            <mxGeometry x="1263.995519445083" y="440.9968653779871" width="550" height="376" as="geometry" />
          </mxCell>
        </UserObject>
        <mxCell id="CqxgGtcZtNKs-9hgngda-26" value="&lt;pre class=&quot;language-cpp&quot; style=&quot;background: transparent; font-family: Consolas, Monaco, &amp;quot;Andale Mono&amp;quot;, &amp;quot;Ubuntu Mono&amp;quot;, monospace; font-size: 16px; text-align: left; white-space: pre; word-spacing: 0px; word-break: normal; overflow-wrap: normal; line-height: 1.4; tab-size: 4; hyphens: none; padding: 1.25rem 1.5rem 1.25rem 4.5rem; margin: 0.85rem 0px; overflow: auto; border-radius: 6px; position: relative; z-index: 1; vertical-align: middle; font-style: normal; font-variant-ligatures: normal; font-variant-caps: normal; letter-spacing: normal; orphans: 2; text-indent: 0px; text-transform: none; widows: 2; -webkit-text-stroke-width: 0px; text-decoration-thickness: initial; text-decoration-style: initial; text-decoration-color: initial;&quot;&gt;&lt;pre style=&quot;background: transparent; font-family: Consolas, Monaco, &amp;quot;Andale Mono&amp;quot;, &amp;quot;Ubuntu Mono&amp;quot;, monospace; word-break: normal; overflow-wrap: normal; line-height: 1.4; tab-size: 4; hyphens: none; padding: 1.25rem 1.5rem 1.25rem 4.5rem; margin-top: 0.85rem; margin-bottom: 0.85rem; overflow: auto; border-radius: 6px; position: relative; z-index: 1; vertical-align: middle;&quot; class=&quot;language-cpp&quot;&gt;&lt;code style=&quot;font-family: source-code-pro, Menlo, Monaco, Consolas, &amp;quot;Courier New&amp;quot;, monospace; padding: 0px; margin: 0px; font-size: 0.85em; background-color: transparent; border-radius: 0px;&quot;&gt;&lt;b&gt;&lt;span style=&quot;&quot; class=&quot;token keyword&quot;&gt;class&lt;/span&gt; &lt;span style=&quot;&quot; class=&quot;token class-name&quot;&gt;Solution&lt;/span&gt; &lt;span style=&quot;&quot; class=&quot;token punctuation&quot;&gt;{&lt;/span&gt;&lt;br&gt;&lt;span style=&quot;&quot; class=&quot;token keyword&quot;&gt;private&lt;/span&gt;&lt;span style=&quot;&quot; class=&quot;token operator&quot;&gt;:&lt;/span&gt;&lt;br&gt;    vector&lt;span style=&quot;&quot; class=&quot;token operator&quot;&gt;&amp;lt;&lt;/span&gt;vector&lt;span style=&quot;&quot; class=&quot;token operator&quot;&gt;&amp;lt;&lt;/span&gt;&lt;span style=&quot;&quot; class=&quot;token keyword&quot;&gt;int&lt;/span&gt;&lt;span style=&quot;&quot; class=&quot;token operator&quot;&gt;&amp;gt;&amp;gt;&lt;/span&gt; result&lt;span style=&quot;&quot; class=&quot;token punctuation&quot;&gt;;&lt;/span&gt;&lt;br&gt;    vector&lt;span style=&quot;&quot; class=&quot;token operator&quot;&gt;&amp;lt;&lt;/span&gt;&lt;span style=&quot;&quot; class=&quot;token keyword&quot;&gt;int&lt;/span&gt;&lt;span style=&quot;&quot; class=&quot;token operator&quot;&gt;&amp;gt;&lt;/span&gt; path&lt;span style=&quot;&quot; class=&quot;token punctuation&quot;&gt;;&lt;/span&gt;&lt;br&gt;    &lt;span style=&quot;&quot; class=&quot;token keyword&quot;&gt;void&lt;/span&gt; &lt;span style=&quot;&quot; class=&quot;token function&quot;&gt;backtracking&lt;/span&gt;&lt;span style=&quot;&quot; class=&quot;token punctuation&quot;&gt;(&lt;/span&gt;vector&lt;span style=&quot;&quot; class=&quot;token operator&quot;&gt;&amp;lt;&lt;/span&gt;&lt;span style=&quot;&quot; class=&quot;token keyword&quot;&gt;int&lt;/span&gt;&lt;span style=&quot;&quot; class=&quot;token operator&quot;&gt;&amp;gt;&lt;/span&gt;&lt;span style=&quot;&quot; class=&quot;token operator&quot;&gt;&amp;amp;&lt;/span&gt; nums&lt;span style=&quot;&quot; class=&quot;token punctuation&quot;&gt;,&lt;/span&gt; &lt;span style=&quot;&quot; class=&quot;token keyword&quot;&gt;int&lt;/span&gt; startIndex&lt;span style=&quot;&quot; class=&quot;token punctuation&quot;&gt;,&lt;/span&gt; vector&lt;span style=&quot;&quot; class=&quot;token operator&quot;&gt;&amp;lt;&lt;/span&gt;&lt;span style=&quot;&quot; class=&quot;token keyword&quot;&gt;bool&lt;/span&gt;&lt;span style=&quot;&quot; class=&quot;token operator&quot;&gt;&amp;gt;&lt;/span&gt;&lt;span style=&quot;&quot; class=&quot;token operator&quot;&gt;&amp;amp;&lt;/span&gt; used&lt;span style=&quot;&quot; class=&quot;token punctuation&quot;&gt;)&lt;/span&gt; &lt;span style=&quot;&quot; class=&quot;token punctuation&quot;&gt;{&lt;/span&gt;&lt;br&gt;        result&lt;span style=&quot;&quot; class=&quot;token punctuation&quot;&gt;.&lt;/span&gt;&lt;span style=&quot;&quot; class=&quot;token function&quot;&gt;push_back&lt;/span&gt;&lt;span style=&quot;&quot; class=&quot;token punctuation&quot;&gt;(&lt;/span&gt;path&lt;span style=&quot;&quot; class=&quot;token punctuation&quot;&gt;)&lt;/span&gt;&lt;span style=&quot;&quot; class=&quot;token punctuation&quot;&gt;;&lt;/span&gt;&lt;br&gt;        &lt;span style=&quot;&quot; class=&quot;token keyword&quot;&gt;for&lt;/span&gt; &lt;span style=&quot;&quot; class=&quot;token punctuation&quot;&gt;(&lt;/span&gt;&lt;span style=&quot;&quot; class=&quot;token keyword&quot;&gt;int&lt;/span&gt; i &lt;span style=&quot;&quot; class=&quot;token operator&quot;&gt;=&lt;/span&gt; startIndex&lt;span style=&quot;&quot; class=&quot;token punctuation&quot;&gt;;&lt;/span&gt; i &lt;span style=&quot;&quot; class=&quot;token operator&quot;&gt;&amp;lt;&lt;/span&gt; nums&lt;span style=&quot;&quot; class=&quot;token punctuation&quot;&gt;.&lt;/span&gt;&lt;span style=&quot;&quot; class=&quot;token function&quot;&gt;size&lt;/span&gt;&lt;span style=&quot;&quot; class=&quot;token punctuation&quot;&gt;(&lt;/span&gt;&lt;span style=&quot;&quot; class=&quot;token punctuation&quot;&gt;)&lt;/span&gt;&lt;span style=&quot;&quot; class=&quot;token punctuation&quot;&gt;;&lt;/span&gt; i&lt;span style=&quot;&quot; class=&quot;token operator&quot;&gt;++&lt;/span&gt;&lt;span style=&quot;&quot; class=&quot;token punctuation&quot;&gt;)&lt;/span&gt; &lt;span style=&quot;&quot; class=&quot;token punctuation&quot;&gt;{&lt;/span&gt;&lt;br&gt;            &lt;span style=&quot;&quot; class=&quot;token comment&quot;&gt;// used[i - 1] == true，说明同一树枝candidates[i - 1]使用过&lt;/span&gt;&lt;br&gt;            &lt;span style=&quot;&quot; class=&quot;token comment&quot;&gt;// used[i - 1] == false，说明同一树层candidates[i - 1]使用过&lt;/span&gt;&lt;br&gt;            &lt;span style=&quot;&quot; class=&quot;token comment&quot;&gt;// 而我们要对同一树层使用过的元素进行跳过&lt;/span&gt;&lt;br&gt;            &lt;span style=&quot;&quot; class=&quot;token keyword&quot;&gt;if&lt;/span&gt; &lt;span style=&quot;&quot; class=&quot;token punctuation&quot;&gt;(&lt;/span&gt;i &lt;span style=&quot;&quot; class=&quot;token operator&quot;&gt;&amp;gt;&lt;/span&gt; &lt;span style=&quot;&quot; class=&quot;token number&quot;&gt;0&lt;/span&gt; &lt;span style=&quot;&quot; class=&quot;token operator&quot;&gt;&amp;amp;&amp;amp;&lt;/span&gt; nums&lt;span style=&quot;&quot; class=&quot;token punctuation&quot;&gt;[&lt;/span&gt;i&lt;span style=&quot;&quot; class=&quot;token punctuation&quot;&gt;]&lt;/span&gt; &lt;span style=&quot;&quot; class=&quot;token operator&quot;&gt;==&lt;/span&gt; nums&lt;span style=&quot;&quot; class=&quot;token punctuation&quot;&gt;[&lt;/span&gt;i &lt;span style=&quot;&quot; class=&quot;token operator&quot;&gt;-&lt;/span&gt; &lt;span style=&quot;&quot; class=&quot;token number&quot;&gt;1&lt;/span&gt;&lt;span style=&quot;&quot; class=&quot;token punctuation&quot;&gt;]&lt;/span&gt; &lt;span style=&quot;&quot; class=&quot;token operator&quot;&gt;&amp;amp;&amp;amp;&lt;/span&gt; used&lt;span style=&quot;&quot; class=&quot;token punctuation&quot;&gt;[&lt;/span&gt;i &lt;span style=&quot;&quot; class=&quot;token operator&quot;&gt;-&lt;/span&gt; &lt;span style=&quot;&quot; class=&quot;token number&quot;&gt;1&lt;/span&gt;&lt;span style=&quot;&quot; class=&quot;token punctuation&quot;&gt;]&lt;/span&gt; &lt;span style=&quot;&quot; class=&quot;token operator&quot;&gt;==&lt;/span&gt; &lt;span style=&quot;&quot; class=&quot;token boolean&quot;&gt;false&lt;/span&gt;&lt;span style=&quot;&quot; class=&quot;token punctuation&quot;&gt;)&lt;/span&gt; &lt;span style=&quot;&quot; class=&quot;token punctuation&quot;&gt;{&lt;/span&gt;&lt;br&gt;                &lt;span style=&quot;&quot; class=&quot;token keyword&quot;&gt;continue&lt;/span&gt;&lt;span style=&quot;&quot; class=&quot;token punctuation&quot;&gt;;&lt;/span&gt;&lt;br&gt;            &lt;span style=&quot;&quot; class=&quot;token punctuation&quot;&gt;}&lt;/span&gt;&lt;br&gt;            path&lt;span style=&quot;&quot; class=&quot;token punctuation&quot;&gt;.&lt;/span&gt;&lt;span style=&quot;&quot; class=&quot;token function&quot;&gt;push_back&lt;/span&gt;&lt;span style=&quot;&quot; class=&quot;token punctuation&quot;&gt;(&lt;/span&gt;nums&lt;span style=&quot;&quot; class=&quot;token punctuation&quot;&gt;[&lt;/span&gt;i&lt;span style=&quot;&quot; class=&quot;token punctuation&quot;&gt;]&lt;/span&gt;&lt;span style=&quot;&quot; class=&quot;token punctuation&quot;&gt;)&lt;/span&gt;&lt;span style=&quot;&quot; class=&quot;token punctuation&quot;&gt;;&lt;/span&gt;&lt;br&gt;            used&lt;span style=&quot;&quot; class=&quot;token punctuation&quot;&gt;[&lt;/span&gt;i&lt;span style=&quot;&quot; class=&quot;token punctuation&quot;&gt;]&lt;/span&gt; &lt;span style=&quot;&quot; class=&quot;token operator&quot;&gt;=&lt;/span&gt; &lt;span style=&quot;&quot; class=&quot;token boolean&quot;&gt;true&lt;/span&gt;&lt;span style=&quot;&quot; class=&quot;token punctuation&quot;&gt;;&lt;/span&gt;&lt;br&gt;            &lt;span style=&quot;&quot; class=&quot;token function&quot;&gt;backtracking&lt;/span&gt;&lt;span style=&quot;&quot; class=&quot;token punctuation&quot;&gt;(&lt;/span&gt;nums&lt;span style=&quot;&quot; class=&quot;token punctuation&quot;&gt;,&lt;/span&gt; i &lt;span style=&quot;&quot; class=&quot;token operator&quot;&gt;+&lt;/span&gt; &lt;span style=&quot;&quot; class=&quot;token number&quot;&gt;1&lt;/span&gt;&lt;span style=&quot;&quot; class=&quot;token punctuation&quot;&gt;,&lt;/span&gt; used&lt;span style=&quot;&quot; class=&quot;token punctuation&quot;&gt;)&lt;/span&gt;&lt;span style=&quot;&quot; class=&quot;token punctuation&quot;&gt;;&lt;/span&gt;&lt;br&gt;            used&lt;span style=&quot;&quot; class=&quot;token punctuation&quot;&gt;[&lt;/span&gt;i&lt;span style=&quot;&quot; class=&quot;token punctuation&quot;&gt;]&lt;/span&gt; &lt;span style=&quot;&quot; class=&quot;token operator&quot;&gt;=&lt;/span&gt; &lt;span style=&quot;&quot; class=&quot;token boolean&quot;&gt;false&lt;/span&gt;&lt;span style=&quot;&quot; class=&quot;token punctuation&quot;&gt;;&lt;/span&gt;&lt;br&gt;            path&lt;span style=&quot;&quot; class=&quot;token punctuation&quot;&gt;.&lt;/span&gt;&lt;span style=&quot;&quot; class=&quot;token function&quot;&gt;pop_back&lt;/span&gt;&lt;span style=&quot;&quot; class=&quot;token punctuation&quot;&gt;(&lt;/span&gt;&lt;span style=&quot;&quot; class=&quot;token punctuation&quot;&gt;)&lt;/span&gt;&lt;span style=&quot;&quot; class=&quot;token punctuation&quot;&gt;;&lt;/span&gt;&lt;br&gt;        &lt;span style=&quot;&quot; class=&quot;token punctuation&quot;&gt;}&lt;/span&gt;&lt;br&gt;    &lt;span style=&quot;&quot; class=&quot;token punctuation&quot;&gt;}&lt;/span&gt;&lt;br&gt;&lt;br&gt;&lt;span style=&quot;&quot; class=&quot;token keyword&quot;&gt;public&lt;/span&gt;&lt;span style=&quot;&quot; class=&quot;token operator&quot;&gt;:&lt;/span&gt;&lt;br&gt;    vector&lt;span style=&quot;&quot; class=&quot;token operator&quot;&gt;&amp;lt;&lt;/span&gt;vector&lt;span style=&quot;&quot; class=&quot;token operator&quot;&gt;&amp;lt;&lt;/span&gt;&lt;span style=&quot;&quot; class=&quot;token keyword&quot;&gt;int&lt;/span&gt;&lt;span style=&quot;&quot; class=&quot;token operator&quot;&gt;&amp;gt;&amp;gt;&lt;/span&gt; &lt;span style=&quot;&quot; class=&quot;token function&quot;&gt;subsetsWithDup&lt;/span&gt;&lt;span style=&quot;&quot; class=&quot;token punctuation&quot;&gt;(&lt;/span&gt;vector&lt;span style=&quot;&quot; class=&quot;token operator&quot;&gt;&amp;lt;&lt;/span&gt;&lt;span style=&quot;&quot; class=&quot;token keyword&quot;&gt;int&lt;/span&gt;&lt;span style=&quot;&quot; class=&quot;token operator&quot;&gt;&amp;gt;&lt;/span&gt;&lt;span style=&quot;&quot; class=&quot;token operator&quot;&gt;&amp;amp;&lt;/span&gt; nums&lt;span style=&quot;&quot; class=&quot;token punctuation&quot;&gt;)&lt;/span&gt; &lt;span style=&quot;&quot; class=&quot;token punctuation&quot;&gt;{&lt;/span&gt;&lt;br&gt;        result&lt;span style=&quot;&quot; class=&quot;token punctuation&quot;&gt;.&lt;/span&gt;&lt;span style=&quot;&quot; class=&quot;token function&quot;&gt;clear&lt;/span&gt;&lt;span style=&quot;&quot; class=&quot;token punctuation&quot;&gt;(&lt;/span&gt;&lt;span style=&quot;&quot; class=&quot;token punctuation&quot;&gt;)&lt;/span&gt;&lt;span style=&quot;&quot; class=&quot;token punctuation&quot;&gt;;&lt;/span&gt;&lt;br&gt;        path&lt;span style=&quot;&quot; class=&quot;token punctuation&quot;&gt;.&lt;/span&gt;&lt;span style=&quot;&quot; class=&quot;token function&quot;&gt;clear&lt;/span&gt;&lt;span style=&quot;&quot; class=&quot;token punctuation&quot;&gt;(&lt;/span&gt;&lt;span style=&quot;&quot; class=&quot;token punctuation&quot;&gt;)&lt;/span&gt;&lt;span style=&quot;&quot; class=&quot;token punctuation&quot;&gt;;&lt;/span&gt;&lt;br&gt;        vector&lt;span style=&quot;&quot; class=&quot;token operator&quot;&gt;&amp;lt;&lt;/span&gt;&lt;span style=&quot;&quot; class=&quot;token keyword&quot;&gt;bool&lt;/span&gt;&lt;span style=&quot;&quot; class=&quot;token operator&quot;&gt;&amp;gt;&lt;/span&gt; &lt;span style=&quot;&quot; class=&quot;token function&quot;&gt;used&lt;/span&gt;&lt;span style=&quot;&quot; class=&quot;token punctuation&quot;&gt;(&lt;/span&gt;nums&lt;span style=&quot;&quot; class=&quot;token punctuation&quot;&gt;.&lt;/span&gt;&lt;span style=&quot;&quot; class=&quot;token function&quot;&gt;size&lt;/span&gt;&lt;span style=&quot;&quot; class=&quot;token punctuation&quot;&gt;(&lt;/span&gt;&lt;span style=&quot;&quot; class=&quot;token punctuation&quot;&gt;)&lt;/span&gt;&lt;span style=&quot;&quot; class=&quot;token punctuation&quot;&gt;,&lt;/span&gt; &lt;span style=&quot;&quot; class=&quot;token boolean&quot;&gt;false&lt;/span&gt;&lt;span style=&quot;&quot; class=&quot;token punctuation&quot;&gt;)&lt;/span&gt;&lt;span style=&quot;&quot; class=&quot;token punctuation&quot;&gt;;&lt;/span&gt;&lt;br&gt;        &lt;span style=&quot;&quot; class=&quot;token function&quot;&gt;sort&lt;/span&gt;&lt;span style=&quot;&quot; class=&quot;token punctuation&quot;&gt;(&lt;/span&gt;nums&lt;span style=&quot;&quot; class=&quot;token punctuation&quot;&gt;.&lt;/span&gt;&lt;span style=&quot;&quot; class=&quot;token function&quot;&gt;begin&lt;/span&gt;&lt;span style=&quot;&quot; class=&quot;token punctuation&quot;&gt;(&lt;/span&gt;&lt;span style=&quot;&quot; class=&quot;token punctuation&quot;&gt;)&lt;/span&gt;&lt;span style=&quot;&quot; class=&quot;token punctuation&quot;&gt;,&lt;/span&gt; nums&lt;span style=&quot;&quot; class=&quot;token punctuation&quot;&gt;.&lt;/span&gt;&lt;span style=&quot;&quot; class=&quot;token function&quot;&gt;end&lt;/span&gt;&lt;span style=&quot;&quot; class=&quot;token punctuation&quot;&gt;(&lt;/span&gt;&lt;span style=&quot;&quot; class=&quot;token punctuation&quot;&gt;)&lt;/span&gt;&lt;span style=&quot;&quot; class=&quot;token punctuation&quot;&gt;)&lt;/span&gt;&lt;span style=&quot;&quot; class=&quot;token punctuation&quot;&gt;;&lt;/span&gt; &lt;span style=&quot;&quot; class=&quot;token comment&quot;&gt;// 去重需要排序&lt;/span&gt;&lt;br&gt;        &lt;span style=&quot;&quot; class=&quot;token function&quot;&gt;backtracking&lt;/span&gt;&lt;span style=&quot;&quot; class=&quot;token punctuation&quot;&gt;(&lt;/span&gt;nums&lt;span style=&quot;&quot; class=&quot;token punctuation&quot;&gt;,&lt;/span&gt; &lt;span style=&quot;&quot; class=&quot;token number&quot;&gt;0&lt;/span&gt;&lt;span style=&quot;&quot; class=&quot;token punctuation&quot;&gt;,&lt;/span&gt; used&lt;span style=&quot;&quot; class=&quot;token punctuation&quot;&gt;)&lt;/span&gt;&lt;span style=&quot;&quot; class=&quot;token punctuation&quot;&gt;;&lt;/span&gt;&lt;br&gt;        &lt;span style=&quot;&quot; class=&quot;token keyword&quot;&gt;return&lt;/span&gt; result&lt;span style=&quot;&quot; class=&quot;token punctuation&quot;&gt;;&lt;/span&gt;&lt;br&gt;    &lt;span style=&quot;&quot; class=&quot;token punctuation&quot;&gt;}&lt;/span&gt;&lt;br&gt;&lt;span style=&quot;&quot; class=&quot;token punctuation&quot;&gt;}&lt;/span&gt;&lt;span style=&quot;&quot; class=&quot;token punctuation&quot;&gt;;&lt;/span&gt;&lt;/b&gt;&lt;/code&gt;&lt;/pre&gt;&lt;/pre&gt;" style="text;whiteSpace=wrap;html=1;" vertex="1" parent="1">
          <mxGeometry x="1161.996484518612" y="1021.0039242015168" width="550" height="681" as="geometry" />
        </mxCell>
        <mxCell id="CqxgGtcZtNKs-9hgngda-27" value="&lt;font style=&quot;font-size: 20px;&quot;&gt;要保证结果集没有重复的子集，那么for横向遍历要去重，同时标记used为false表示是在走当前层，进入递归设置成true，表示走的深度递归，没必要去重&lt;/font&gt;" style="text;html=1;align=center;verticalAlign=middle;resizable=0;points=[];autosize=1;strokeColor=none;fillColor=none;" vertex="1" parent="1">
          <mxGeometry x="1184" y="1042" width="1361" height="36" as="geometry" />
        </mxCell>
      </root>
    </mxGraphModel>
  </diagram>
</mxfile>
